<svg id="Layer_1" data-name="Layer 1" xmlns="http://www.w3.org/2000/svg" viewBox="0 0 356.07 180.66"><defs><style>.cls-1{fill:#8dd4bd;}.cls-2{fill:#231f20;}.cls-3{fill:none;stroke:#231f20;stroke-miterlimit:10;stroke-width:0.5px;}</style></defs><rect class="cls-1" x="28.37" y="27.01" width="299.33" height="126.65"/><path class="cls-2" d="M83.31,92.88H84.9V83H83.31V81.43h5.16V83H86.7V92.9h4.13V91h1.72v3.52H83.31Z" transform="translate(-2.03 -3.02)"/><path class="cls-2" d="M100.21,92.88h1.71V83h-1.71V81.43h5.18V83H103.7v9.84h1.69v1.61h-5.18Z" transform="translate(-2.03 -3.02)"/><path class="cls-2" d="M113.18,91.87a1.22,1.22,0,0,1,1.19-1.37,1.13,1.13,0,0,1,1.19,1.09,1.5,1.5,0,0,1-.25.85,3.72,3.72,0,0,0,2.38.7c1.58,0,2.59-.78,2.59-2.07s-1.19-1.8-2.57-2.32c-2.34-.87-4-1.66-4-4,0-2,1.63-3.56,4.15-3.56,2.28,0,4.06,1.22,4.06,2.67a1.18,1.18,0,1,1-2.36.14,1.13,1.13,0,0,1,.22-.69,3.19,3.19,0,0,0-2-.56c-1.44,0-2.32.78-2.32,1.87,0,1.25,1.17,1.78,2.66,2.36,2.24.83,3.93,1.64,3.93,4s-1.87,3.78-4.42,3.78S113.18,93.28,113.18,91.87Z" transform="translate(-2.03 -3.02)"/><path class="cls-2" d="M129.13,92.88h1.19L134,83H132.5V81.43h6.55V83h-1.47l3.63,9.86h1.21v1.61h-4.64V92.9h1.51l-1-2.76h-5.16l-1,2.76h1.58v1.59h-4.64Zm8.67-4.25-2.06-5.69-2.07,5.69Z" transform="translate(-2.03 -3.02)"/><path class="cls-2" d="M159.84,92.88h1.63l.45-9.84h-1.7V81.43h3.35l4.16,8.2,4.17-8.2h3.31V83h-1.68l.43,9.84h1.65v1.61h-5V92.88h1.61l-.3-8.12-4,7.74h-.33l-4-7.74-.3,8.12h1.61v1.61h-5Z" transform="translate(-2.03 -3.02)"/><path class="cls-2" d="M183.13,88a6.64,6.64,0,1,1,6.59,6.76A6.53,6.53,0,0,1,183.13,88Zm11.42,0a4.8,4.8,0,1,0-4.78,5.1A4.8,4.8,0,0,0,194.55,88Z" transform="translate(-2.03 -3.02)"/><path class="cls-2" d="M207.57,84.63v8.25h1.67v1.61h-5V92.88h1.58V83h-1.58V81.43h3.13l7.06,9.21V83h-1.66V81.43h4.93V83h-1.52V94.52l-1,0Z" transform="translate(-2.03 -3.02)"/><path class="cls-2" d="M225.28,91.87a1.22,1.22,0,0,1,1.19-1.37,1.13,1.13,0,0,1,1.19,1.09,1.37,1.37,0,0,1-.26.85,3.78,3.78,0,0,0,2.39.7c1.58,0,2.59-.78,2.59-2.07s-1.19-1.8-2.58-2.32c-2.33-.87-4-1.66-4-4,0-2,1.62-3.56,4.14-3.56,2.29,0,4.07,1.22,4.07,2.67a1.18,1.18,0,1,1-2.36.14,1.13,1.13,0,0,1,.22-.69,3.18,3.18,0,0,0-1.94-.56c-1.45,0-2.33.78-2.33,1.87,0,1.25,1.18,1.78,2.66,2.36,2.25.83,3.93,1.64,3.93,4s-1.86,3.78-4.42,3.78S225.28,93.28,225.28,91.87Z" transform="translate(-2.03 -3.02)"/><path class="cls-2" d="M242.24,88a6.64,6.64,0,1,1,6.59,6.76A6.54,6.54,0,0,1,242.24,88Zm11.43,0a4.8,4.8,0,1,0-4.78,5.1A4.8,4.8,0,0,0,253.67,88Z" transform="translate(-2.03 -3.02)"/><path class="cls-2" d="M266.68,84.63v8.25h1.67v1.61h-5V92.88h1.59V83h-1.59V81.43h3.13l7.07,9.21V83h-1.67V81.43h4.94V83h-1.53V94.52l-1,0Z" transform="translate(-2.03 -3.02)"/><path class="cls-2" d="M121.61,108.76h1v4.87h3v.93h-4.06Z" transform="translate(-2.03 -3.02)"/><path class="cls-2" d="M130.28,108.76v5.8h-1v-5.8Z" transform="translate(-2.03 -3.02)"/><path class="cls-2" d="M138.61,109.69h-3.29v1.58h2.92v.93h-2.92v2.36h-1v-5.8h4.31Z" transform="translate(-2.03 -3.02)"/><path class="cls-2" d="M146.5,109.67h-3.28v1.51h2.91v.91h-2.91v1.55h3.32v.92h-4.33v-5.8h4.29Z" transform="translate(-2.03 -3.02)"/><path class="cls-2" d="M152.46,111.2c1.22.3,1.86.73,1.86,1.7s-.85,1.74-2.07,1.74a3.56,3.56,0,0,1-2.41-.93l.61-.73a2.67,2.67,0,0,0,1.83.76c.63,0,1-.29,1-.74s-.23-.64-1.31-.89c-1.23-.3-1.92-.67-1.92-1.74a1.77,1.77,0,0,1,2-1.69,3.24,3.24,0,0,1,2.11.73l-.55.77a2.62,2.62,0,0,0-1.57-.6c-.6,0-.95.31-.95.7S151.35,110.93,152.46,111.2Z" transform="translate(-2.03 -3.02)"/><path class="cls-2" d="M160.32,114.56h-1v-4.85h-1.83v-.95h4.7v.95h-1.84Z" transform="translate(-2.03 -3.02)"/><path class="cls-2" d="M168.44,114.56h-1v-2.29l-2.3-3.51h1.2l1.62,2.57,1.64-2.57h1.17l-2.3,3.49Z" transform="translate(-2.03 -3.02)"/><path class="cls-2" d="M174.1,108.76h1v4.87h3v.93H174.1Z" transform="translate(-2.03 -3.02)"/><path class="cls-2" d="M186,109.67h-3.28v1.51h2.9v.91h-2.9v1.55H186v.92H181.7v-5.8H186Z" transform="translate(-2.03 -3.02)"/><path class="cls-2" d="M196.84,114.56h-2.16v-5.8h2.16a2.9,2.9,0,1,1,0,5.8Zm0-4.87H195.7v3.94h1.14a2,2,0,1,0,0-3.94Z" transform="translate(-2.03 -3.02)"/><path class="cls-2" d="M207.92,109.67h-3.28v1.51h2.9v.91h-2.9v1.55H208v.92h-4.34v-5.8h4.3Z" transform="translate(-2.03 -3.02)"/><path class="cls-2" d="M213.87,111.2c1.23.3,1.87.73,1.87,1.7s-.86,1.74-2.07,1.74a3.58,3.58,0,0,1-2.42-.93l.61-.73a2.69,2.69,0,0,0,1.83.76c.63,0,1-.29,1-.74s-.23-.64-1.31-.89-1.93-.67-1.93-1.74a1.77,1.77,0,0,1,2-1.69,3.19,3.19,0,0,1,2.1.73l-.54.77a2.67,2.67,0,0,0-1.58-.6c-.59,0-.94.31-.94.7S212.77,110.93,213.87,111.2Z" transform="translate(-2.03 -3.02)"/><path class="cls-2" d="M220.49,108.76v5.8h-1v-5.8Z" transform="translate(-2.03 -3.02)"/><path class="cls-2" d="M227.26,114.66a2.89,2.89,0,0,1-3-3,3,3,0,0,1,3-3,3.17,3.17,0,0,1,2.23.79l-.65.77a2.28,2.28,0,0,0-1.62-.62,2.07,2.07,0,0,0,.09,4.13,2.37,2.37,0,0,0,1.39-.44v-1.08h-1.47v-.89h2.46v2.43A3.68,3.68,0,0,1,227.26,114.66Z" transform="translate(-2.03 -3.02)"/><path class="cls-2" d="M237.51,108.76h1v5.8h-.86l-3.19-4.12v4.12h-1v-5.8h.94l3.1,4Z" transform="translate(-2.03 -3.02)"/><path class="cls-2" d="M2.25,162.14H3.34c.12,0,.22-.07.22-.16s-.1-.15-.22-.15H3v-2.31H6.45v6.72L5,171V160.62h.35c.12,0,.22-.07.22-.16s-.1-.15-.22-.15H4.3c-.12,0-.22.07-.22.15s.1.16.22.16h.35v10.54H4.3c-.12,0-.22.07-.22.16s.1.16.22.16H5.39c.12,0,.22-.07.22-.16s-.1-.16-.22-.16h0l1.09-3.66V170H6.1c-.12,0-.22.07-.22.16s.1.15.22.15H7.19c.12,0,.22-.07.22-.15s-.1-.16-.22-.16H6.84V166.2L8.09,162l1.32,3.88V170H9.06c-.12,0-.22.07-.22.16s.1.15.22.15h1.09c.13,0,.23-.07.23-.15s-.1-.16-.23-.16H9.8v-3l1.42,4.17H11c-.12,0-.22.07-.22.16s.1.16.22.16h1.09c.12,0,.22-.07.22-.16s-.1-.16-.22-.16h-.35V160.62h.35c.12,0,.22-.07.22-.16s-.1-.15-.22-.15H11c-.12,0-.22.07-.22.15s.1.16.22.16h.35v9.8L9.8,165.9v-6.38h3.47v2.31h-.36c-.12,0-.22.07-.22.15s.1.16.22.16H14c.13,0,.23-.07.23-.16s-.1-.15-.23-.15h-.35v-2.68H9.06c-.12,0-.22.07-.22.16s.1.16.22.16h.35v5.3l-1.36-4-.16.6h0l-1,3.57v-5.47h.35c.12,0,.22-.07.22-.16s-.1-.16-.22-.16H2.6v2.68H2.25c-.12,0-.22.07-.22.15S2.13,162.14,2.25,162.14Z" transform="translate(-2.03 -3.02)"/><path class="cls-2" d="M14,154.77h-1.1c-.12,0-.22.07-.22.16s.1.15.22.15h.36v2.31H9.8v-6.72l1.41-4.77v10.39h-.35c-.12,0-.22.07-.22.16s.1.15.22.15H12c.12,0,.22-.07.22-.15s-.1-.16-.22-.16H11.6V145.75H12c.12,0,.22-.07.22-.16s-.1-.16-.22-.16H10.86c-.12,0-.22.07-.22.16s.1.16.22.16h0L9.8,149.41V146.9h.35c.13,0,.22-.07.22-.16s-.09-.15-.22-.15H9.06c-.12,0-.22.07-.22.15s.1.16.22.16h.36v3.81l-1.26,4.23-1.32-3.88V146.9h.35c.12,0,.22-.07.22-.16s-.1-.15-.22-.15H6.1c-.12,0-.22.07-.22.15s.1.16.22.16h.35v3L5,145.75h.23c.13,0,.22-.07.22-.16s-.09-.16-.22-.16H4.17c-.12,0-.22.07-.22.16s.1.16.22.16h.35v10.54H4.17c-.12,0-.22.07-.22.16s.1.15.22.15H5.26c.13,0,.22-.07.22-.15s-.09-.16-.22-.16H4.91v-9.8L6.45,151v6.38H3v-2.31h.35c.12,0,.22-.07.22-.15s-.1-.16-.22-.16H2.25c-.13,0-.22.07-.22.16s.09.15.22.15H2.6v2.68H7.19c.12,0,.22-.07.22-.16s-.1-.16-.22-.16H6.84v-5.3l1.36,4,.16-.6h0L9.42,152v5.47H9.06c-.12,0-.22.07-.22.16s.1.16.22.16h4.59v-2.68H14c.12,0,.22-.07.22-.15S14.13,154.77,14,154.77Z" transform="translate(-2.03 -3.02)"/><path class="cls-2" d="M2.25,136.1H3.34c.12,0,.22-.07.22-.16s-.1-.16-.22-.16H3v-2.3H6.45v6.72L5,145V134.58h.35c.12,0,.22-.07.22-.16s-.1-.16-.22-.16H4.3c-.12,0-.22.07-.22.16s.1.16.22.16h.35v10.54H4.3c-.12,0-.22.07-.22.16s.1.15.22.15H5.39c.12,0,.22-.07.22-.15s-.1-.16-.22-.16h0l1.09-3.66V144H6.1c-.12,0-.22.07-.22.15s.1.16.22.16H7.19c.12,0,.22-.07.22-.16s-.1-.15-.22-.15H6.84v-3.81l1.25-4.24,1.32,3.89V144H9.06c-.12,0-.22.07-.22.15s.1.16.22.16h1.09c.13,0,.23-.07.23-.16s-.1-.15-.23-.15H9.8v-3l1.42,4.17H11c-.12,0-.22.07-.22.16s.1.15.22.15h1.09c.12,0,.22-.07.22-.15s-.1-.16-.22-.16h-.35V134.58h.35c.12,0,.22-.07.22-.16s-.1-.16-.22-.16H11c-.12,0-.22.07-.22.16s.1.16.22.16h.35v9.8L9.8,139.86v-6.38h3.47v2.3h-.36c-.12,0-.22.07-.22.16s.1.16.22.16H14c.13,0,.23-.07.23-.16s-.1-.16-.23-.16h-.35v-2.67H9.06c-.12,0-.22.07-.22.15s.1.16.22.16h.35v5.31l-1.36-4-.16.61h0l-1,3.56v-5.47h.35c.12,0,.22-.07.22-.16s-.1-.15-.22-.15H2.6v2.67H2.25c-.12,0-.22.07-.22.16S2.13,136.1,2.25,136.1Z" transform="translate(-2.03 -3.02)"/><path class="cls-2" d="M14,128.73h-1.1c-.12,0-.22.07-.22.15s.1.16.22.16h.36v2.31H9.8v-6.73l1.41-4.76v10.39h-.35c-.12,0-.22.07-.22.15s.1.16.22.16H12c.12,0,.22-.07.22-.16s-.1-.15-.22-.15H11.6V119.7H12c.12,0,.22-.07.22-.15s-.1-.16-.22-.16H10.86c-.12,0-.22.07-.22.16s.1.15.22.15h0L9.8,123.36v-2.5h.35c.13,0,.22-.07.22-.16s-.09-.16-.22-.16H9.06c-.12,0-.22.07-.22.16s.1.16.22.16h.36v3.8L8.16,128.9,6.84,125v-4.15h.35c.12,0,.22-.07.22-.16s-.1-.16-.22-.16H6.1c-.12,0-.22.07-.22.16s.1.16.22.16h.35v3L5,119.7h.23c.13,0,.22-.07.22-.15s-.09-.16-.22-.16H4.17c-.12,0-.22.07-.22.16s.1.15.22.15h.35v10.55H4.17c-.12,0-.22.07-.22.15s.1.16.22.16H5.26c.13,0,.22-.07.22-.16s-.09-.15-.22-.15H4.91v-9.81L6.45,125v6.39H3V129h.35c.12,0,.22-.07.22-.16s-.1-.15-.22-.15H2.25c-.13,0-.22.07-.22.15s.09.16.22.16H2.6v2.67H7.19c.12,0,.22-.07.22-.15s-.1-.16-.22-.16H6.84v-5.3l1.36,4,.16-.6h0l1.06-3.56v5.47H9.06c-.12,0-.22.07-.22.16s.1.15.22.15h4.59V129H14c.12,0,.22-.07.22-.16S14.13,128.73,14,128.73Z" transform="translate(-2.03 -3.02)"/><path class="cls-2" d="M2.25,110.05H3.34c.12,0,.22-.07.22-.15s-.1-.16-.22-.16H3v-2.31H6.45v6.73L5,118.92V108.53h.35c.12,0,.22-.07.22-.15s-.1-.16-.22-.16H4.3c-.12,0-.22.07-.22.16s.1.15.22.15h.35v10.55H4.3c-.12,0-.22.07-.22.15s.1.16.22.16H5.39c.12,0,.22-.07.22-.16s-.1-.15-.22-.15h0l1.09-3.66v2.5H6.1c-.12,0-.22.07-.22.16s.1.16.22.16H7.19c.12,0,.22-.08.22-.16s-.1-.16-.22-.16H6.84v-3.8l1.25-4.24,1.32,3.89v4.15H9.06c-.12,0-.22.07-.22.16s.1.16.22.16h1.09c.13,0,.23-.08.23-.16s-.1-.16-.23-.16H9.8v-3l1.42,4.18H11c-.12,0-.22.07-.22.15s.1.16.22.16h1.09c.12,0,.22-.07.22-.16s-.1-.15-.22-.15h-.35V108.53h.35c.12,0,.22-.07.22-.15s-.1-.16-.22-.16H11c-.12,0-.22.07-.22.16s.1.15.22.15h.35v9.81L9.8,113.82v-6.39h3.47v2.31h-.36c-.12,0-.22.07-.22.16s.1.15.22.15H14c.13,0,.23-.07.23-.15s-.1-.16-.23-.16h-.35v-2.68H9.06c-.12,0-.22.08-.22.16s.1.16.22.16h.35v5.3l-1.36-4-.16.6h0l-1,3.56v-5.47h.35c.12,0,.22-.07.22-.16s-.1-.16-.22-.16H2.6v2.68H2.25c-.12,0-.22.07-.22.16S2.13,110.05,2.25,110.05Z" transform="translate(-2.03 -3.02)"/><path class="cls-2" d="M14,102.68h-1.1c-.12,0-.22.07-.22.16s.1.16.22.16h.36v2.3H9.8V98.58l1.41-4.77V104.2h-.35c-.12,0-.22.07-.22.16s.1.16.22.16H12c.12,0,.22-.07.22-.16s-.1-.16-.22-.16H11.6V93.66H12c.12,0,.22-.07.22-.16s-.1-.15-.22-.15H10.86c-.12,0-.22.07-.22.15s.1.16.22.16h0L9.8,97.32V94.81h.35c.13,0,.22-.07.22-.15s-.09-.16-.22-.16H9.06c-.12,0-.22.07-.22.16s.1.15.22.15h.36v3.81l-1.26,4.24L6.84,99V94.81h.35c.12,0,.22-.07.22-.15s-.1-.16-.22-.16H6.1c-.12,0-.22.07-.22.16s.1.15.22.15h.35v3L5,93.66h.23c.13,0,.22-.07.22-.16s-.09-.15-.22-.15H4.17c-.12,0-.22.07-.22.15s.1.16.22.16h.35V104.2H4.17c-.12,0-.22.07-.22.16s.1.16.22.16H5.26c.13,0,.22-.07.22-.16s-.09-.16-.22-.16H4.91V94.4l1.54,4.52v6.38H3V103h.35c.12,0,.22-.07.22-.16s-.1-.16-.22-.16H2.25c-.13,0-.22.07-.22.16s.09.16.22.16H2.6v2.67H7.19c.12,0,.22-.07.22-.16s-.1-.15-.22-.15H6.84v-5.31l1.36,4,.16-.61h0l1.06-3.56v5.47H9.06c-.12,0-.22.07-.22.15s.1.16.22.16h4.59V103H14c.12,0,.22-.07.22-.16S14.13,102.68,14,102.68Z" transform="translate(-2.03 -3.02)"/><path class="cls-2" d="M2.25,84H3.34c.12,0,.22-.07.22-.16s-.1-.15-.22-.15H3V81.39H6.45v6.72L5,92.88V82.49h.35c.12,0,.22-.07.22-.16s-.1-.15-.22-.15H4.3c-.12,0-.22.07-.22.15s.1.16.22.16h.35V93H4.3c-.12,0-.22.07-.22.16s.1.16.22.16H5.39c.12,0,.22-.07.22-.16S5.51,93,5.39,93h0l1.09-3.66v2.51H6.1c-.12,0-.22.07-.22.16s.1.15.22.15H7.19c.12,0,.22-.07.22-.15s-.1-.16-.22-.16H6.84V88.07l1.25-4.23,1.32,3.88v4.16H9.06c-.12,0-.22.07-.22.16s.1.15.22.15h1.09c.13,0,.23-.07.23-.15s-.1-.16-.23-.16H9.8v-3L11.22,93H11c-.12,0-.22.07-.22.16s.1.16.22.16h1.09c.12,0,.22-.07.22-.16s-.1-.16-.22-.16h-.35V82.49h.35c.12,0,.22-.07.22-.16s-.1-.15-.22-.15H11c-.12,0-.22.07-.22.15s.1.16.22.16h.35v9.8L9.8,87.77V81.39h3.47V83.7h-.36c-.12,0-.22.07-.22.15s.1.16.22.16H14c.13,0,.23-.07.23-.16s-.1-.15-.23-.15h-.35V81H9.06c-.12,0-.22.07-.22.16s.1.16.22.16h.35v5.3l-1.36-4-.16.61h0l-1,3.57V81.34h.35c.12,0,.22-.07.22-.16S7.31,81,7.19,81H2.6V83.7H2.25c-.12,0-.22.07-.22.15S2.13,84,2.25,84Z" transform="translate(-2.03 -3.02)"/><path class="cls-2" d="M14,76.64h-1.1c-.12,0-.22.07-.22.15s.1.16.22.16h.36v2.31H9.8V72.54l1.41-4.77V78.16h-.35c-.12,0-.22.07-.22.16s.1.15.22.15H12c.12,0,.22-.07.22-.15s-.1-.16-.22-.16H11.6V67.62H12c.12,0,.22-.07.22-.16s-.1-.16-.22-.16H10.86c-.12,0-.22.07-.22.16s.1.16.22.16h0L9.8,71.28V68.77h.35c.13,0,.22-.07.22-.16s-.09-.15-.22-.15H9.06c-.12,0-.22.07-.22.15s.1.16.22.16h.36v3.81L8.16,76.81,6.84,72.93V68.77h.35c.12,0,.22-.07.22-.16s-.1-.15-.22-.15H6.1c-.12,0-.22.07-.22.15s.1.16.22.16h.35v3L5,67.62h.23c.13,0,.22-.07.22-.16s-.09-.16-.22-.16H4.17c-.12,0-.22.07-.22.16s.1.16.22.16h.35V78.16H4.17c-.12,0-.22.07-.22.16s.1.15.22.15H5.26c.13,0,.22-.07.22-.15s-.09-.16-.22-.16H4.91V68.35l1.54,4.53v6.38H3V77h.35c.12,0,.22-.07.22-.16s-.1-.15-.22-.15H2.25c-.13,0-.22.07-.22.15s.09.16.22.16H2.6v2.68H7.19c.12,0,.22-.07.22-.16s-.1-.16-.22-.16H6.84V74L8.2,78l.16-.6h0l1.06-3.57v5.47H9.06c-.12,0-.22.07-.22.16s.1.16.22.16h4.59V77H14c.12,0,.22-.07.22-.16S14.13,76.64,14,76.64Z" transform="translate(-2.03 -3.02)"/><path class="cls-2" d="M2.25,58H3.34c.12,0,.22-.07.22-.16s-.1-.16-.22-.16H3v-2.3H6.45v6.72L5,66.84V56.45h.35c.12,0,.22-.07.22-.16s-.1-.16-.22-.16H4.3c-.12,0-.22.07-.22.16s.1.16.22.16h.35V67H4.3c-.12,0-.22.07-.22.16s.1.15.22.15H5.39c.12,0,.22-.07.22-.15S5.51,67,5.39,67h0l1.09-3.66v2.5H6.1c-.12,0-.22.08-.22.16s.1.16.22.16H7.19c.12,0,.22-.07.22-.16s-.1-.16-.22-.16H6.84V62l1.25-4.24,1.32,3.89v4.15H9.06c-.12,0-.22.08-.22.16s.1.16.22.16h1.09c.13,0,.23-.07.23-.16s-.1-.16-.23-.16H9.8v-3L11.22,67H11c-.12,0-.22.07-.22.16s.1.15.22.15h1.09c.12,0,.22-.07.22-.15s-.1-.16-.22-.16h-.35V56.45h.35c.12,0,.22-.07.22-.16s-.1-.16-.22-.16H11c-.12,0-.22.07-.22.16s.1.16.22.16h.35v9.8L9.8,61.73V55.35h3.47v2.3h-.36c-.12,0-.22.07-.22.16s.1.16.22.16H14c.13,0,.23-.07.23-.16s-.1-.16-.23-.16h-.35V55H9.06c-.12,0-.22.07-.22.15s.1.16.22.16h.35V60.6l-1.36-4-.16.61h0l-1,3.56V55.29h.35c.12,0,.22-.07.22-.16S7.31,55,7.19,55H2.6v2.67H2.25c-.12,0-.22.07-.22.16S2.13,58,2.25,58Z" transform="translate(-2.03 -3.02)"/><path class="cls-2" d="M14,50.6h-1.1c-.12,0-.22.07-.22.15s.1.16.22.16h.36v2.31H9.8V46.49l1.41-4.76V52.12h-.35c-.12,0-.22.07-.22.15s.1.16.22.16H12c.12,0,.22-.07.22-.16s-.1-.15-.22-.15H11.6V41.57H12c.12,0,.22-.07.22-.15s-.1-.16-.22-.16H10.86c-.12,0-.22.07-.22.16s.1.15.22.15h0L9.8,45.23v-2.5h.35c.13,0,.22-.07.22-.16s-.09-.16-.22-.16H9.06c-.12,0-.22.07-.22.16s.1.16.22.16h.36v3.8L8.16,50.77,6.84,46.88V42.73h.35c.12,0,.22-.07.22-.16s-.1-.16-.22-.16H6.1c-.12,0-.22.07-.22.16s.1.16.22.16h.35v3L5,41.57h.23c.13,0,.22-.07.22-.15s-.09-.16-.22-.16H4.17c-.12,0-.22.07-.22.16s.1.15.22.15h.35V52.12H4.17c-.12,0-.22.07-.22.15s.1.16.22.16H5.26c.13,0,.22-.07.22-.16s-.09-.15-.22-.15H4.91V42.31l1.54,4.52v6.39H3V50.91h.35c.12,0,.22-.07.22-.16s-.1-.15-.22-.15H2.25c-.13,0-.22.07-.22.15s.09.16.22.16H2.6v2.67H7.19c.12,0,.22-.07.22-.15s-.1-.16-.22-.16H6.84V48L8.2,52l.16-.6h0L9.42,47.8v5.47H9.06c-.12,0-.22.07-.22.16s.1.15.22.15h4.59V50.91H14c.12,0,.22-.07.22-.16S14.13,50.6,14,50.6Z" transform="translate(-2.03 -3.02)"/><path class="cls-2" d="M2.25,31.92H3.34c.12,0,.22-.07.22-.15s-.1-.16-.22-.16H3V29.3H6.45V36L5,40.79V30.4h.35c.12,0,.22-.07.22-.16s-.1-.15-.22-.15H4.3c-.12,0-.22.07-.22.15s.1.16.22.16h.35V41H4.3c-.12,0-.22.07-.22.15s.1.16.22.16H5.39c.12,0,.22-.07.22-.16S5.51,41,5.39,41h0l1.09-3.66v2.5H6.1c-.12,0-.22.07-.22.16s.1.15.22.15H7.19c.12,0,.22-.07.22-.15s-.1-.16-.22-.16H6.84V36l1.25-4.23,1.32,3.89v4.15H9.06c-.12,0-.22.07-.22.16s.1.15.22.15h1.09c.13,0,.23-.07.23-.15s-.1-.16-.23-.16H9.8v-3L11.22,41H11c-.12,0-.22.07-.22.15s.1.16.22.16h1.09c.12,0,.22-.07.22-.16s-.1-.15-.22-.15h-.35V30.4h.35c.12,0,.22-.07.22-.16s-.1-.15-.22-.15H11c-.12,0-.22.07-.22.15s.1.16.22.16h.35v9.81L9.8,35.69V29.3h3.47v2.31h-.36c-.12,0-.22.07-.22.16s.1.15.22.15H14c.13,0,.23-.07.23-.15s-.1-.16-.23-.16h-.35V28.93H9.06c-.12,0-.22.08-.22.16s.1.16.22.16h.35v5.3l-1.36-4-.16.6h0l-1,3.56V29.25h.35c.12,0,.22-.07.22-.16s-.1-.16-.22-.16H2.6v2.68H2.25c-.12,0-.22.07-.22.16S2.13,31.92,2.25,31.92Z" transform="translate(-2.03 -3.02)"/><path class="cls-2" d="M14,24.55h-1.1c-.12,0-.22.07-.22.16s.1.16.22.16h.36v2.3H9.8V20.45l1.41-4.77V26.07h-.35c-.12,0-.22.07-.22.16s.1.16.22.16H12c.12,0,.22-.07.22-.16s-.1-.16-.22-.16H11.6V15.53H12c.12,0,.22-.07.22-.16s-.1-.15-.22-.15H10.86c-.12,0-.22.07-.22.15s.1.16.22.16h0L9.8,19.19V16.68h.35c.13,0,.22-.07.22-.15s-.09-.16-.22-.16H9.06c-.12,0-.22.07-.22.16s.1.15.22.15h.36v3.81L8.16,24.73,6.84,20.84V16.68h.35c.12,0,.22-.07.22-.15s-.1-.16-.22-.16H6.1c-.12,0-.22.07-.22.16s.1.15.22.15h.35v3L5,15.53h.23c.13,0,.22-.07.22-.16s-.09-.15-.22-.15H4.17c-.12,0-.22.07-.22.15s.1.16.22.16h.35V26.07H4.17c-.12,0-.22.07-.22.16s.1.16.22.16H5.26c.13,0,.22-.07.22-.16s-.09-.16-.22-.16H4.91v-9.8l1.54,4.52v6.38H3v-2.3h.35c.12,0,.22-.07.22-.16s-.1-.16-.22-.16H2.25c-.13,0-.22.07-.22.16s.09.16.22.16H2.6v2.67H7.19c.12,0,.22-.07.22-.16s-.1-.15-.22-.15H6.84V21.92l1.36,4,.16-.61h0l1.06-3.56v5.47H9.06c-.12,0-.22.07-.22.15s.1.16.22.16h4.59V24.87H14c.12,0,.22-.07.22-.16S14.13,24.55,14,24.55Z" transform="translate(-2.03 -3.02)"/><path class="cls-2" d="M24.13,3.24V4.33a.18.18,0,1,0,.34,0V4h2.45V7.44H19.78L14.72,6h11v.35c0,.12.07.22.17.22s.16-.1.16-.22V5.29c0-.12-.07-.22-.16-.22s-.17.1-.17.22v.35H14.56V5.29a.2.2,0,0,0-.17-.22c-.09,0-.16.1-.16.22V6.38c0,.12.07.22.16.22a.2.2,0,0,0,.17-.22v0l3.88,1.09H15.78V7.09c0-.13-.07-.22-.16-.22s-.17.09-.17.22V8.18a.2.2,0,0,0,.17.22c.09,0,.16-.1.16-.22V7.83h4l4.5,1.25L20.19,10.4H15.78v-.35c0-.12-.07-.22-.16-.22a.2.2,0,0,0-.17.22v1.09c0,.13.08.23.17.23s.16-.1.16-.23v-.35H19l-4.43,1.42V12a.2.2,0,0,0-.17-.22c-.09,0-.16.1-.16.22v1.09c0,.12.07.22.16.22a.2.2,0,0,0,.17-.22v-.35H25.75v.35c0,.12.07.22.17.22s.16-.1.16-.22V12c0-.12-.07-.22-.16-.22s-.17.1-.17.22v.35H15.34l4.8-1.54h6.78v3.47H24.47V13.9a.18.18,0,1,0-.34,0V15c0,.13.08.22.17.22s.17-.09.17-.22v-.35h2.84V11.15h0V10.05a.18.18,0,1,0-.34,0v.35H21.34L25.59,9,25,8.88h0L21.17,7.83H27v.35a.18.18,0,1,0,.34,0V7.09h0V3.59H24.47V3.24a.18.18,0,1,0-.34,0Z" transform="translate(-2.03 -3.02)"/><path class="cls-2" d="M32,15V13.9a.18.18,0,1,0-.34,0v.36H29.18V10.79h7.13l5.06,1.41h-11v-.35c0-.12-.07-.22-.16-.22a.2.2,0,0,0-.17.22v1.09a.2.2,0,0,0,.17.22c.09,0,.16-.1.16-.22v-.35H41.53v.35a.18.18,0,1,0,.34,0V11.85a.18.18,0,1,0-.34,0v0l-3.88-1.09h2.66v.35c0,.13.07.22.16.22s.17-.09.17-.22V10.05c0-.12-.07-.22-.17-.22s-.16.1-.16.22v.36h-4l-4.5-1.26L35.9,7.83h4.41v.35c0,.12.07.22.16.22s.17-.1.17-.22V7.09c0-.12-.07-.22-.17-.22s-.16.1-.16.22v.35H37.1L41.53,6v.23c0,.13.08.22.17.22s.17-.09.17-.22V5.16a.18.18,0,1,0-.34,0v.35H30.34V5.16c0-.12-.07-.22-.16-.22a.2.2,0,0,0-.17.22V6.25c0,.13.08.22.17.22s.16-.09.16-.22V5.9H40.75L36,7.44H29.18V4h2.44v.35a.18.18,0,1,0,.34,0V3.24c0-.13-.08-.22-.17-.22s-.17.09-.17.22v.35H28.78V7.08h0V8.18a.18.18,0,1,0,.34,0V7.83h5.63L30.5,9.19l.64.16h0l3.78,1.06h-5.8v-.36a.18.18,0,1,0-.34,0v1.09h0v3.49h2.84V15c0,.13.08.23.17.23S32,15.12,32,15Z" transform="translate(-2.03 -3.02)"/><path class="cls-2" d="M51.77,3.24V4.33a.18.18,0,1,0,.34,0V4h2.45V7.44H47.42L42.36,6h11v.35c0,.12.07.22.16.22s.17-.1.17-.22V5.29c0-.12-.07-.22-.17-.22s-.16.1-.16.22v.35H42.2V5.29A.2.2,0,0,0,42,5.07c-.09,0-.16.1-.16.22V6.38c0,.12.07.22.16.22a.2.2,0,0,0,.17-.22v0l3.88,1.09H43.42V7.09c0-.13-.07-.22-.16-.22s-.17.09-.17.22V8.18a.2.2,0,0,0,.17.22c.09,0,.16-.1.16-.22V7.83h4L52,9.08,47.83,10.4H43.42v-.35c0-.12-.07-.22-.16-.22a.2.2,0,0,0-.17.22v1.09c0,.13.08.23.17.23s.16-.1.16-.23v-.35h3.21L42.2,12.21V12a.2.2,0,0,0-.17-.22c-.09,0-.16.1-.16.22v1.09c0,.12.07.22.16.22a.2.2,0,0,0,.17-.22v-.35H53.39v.35c0,.12.07.22.16.22s.17-.1.17-.22V12c0-.12-.07-.22-.17-.22s-.16.1-.16.22v.35H43l4.8-1.54h6.78v3.47H52.11V13.9a.18.18,0,1,0-.34,0V15c0,.13.08.22.17.22s.17-.09.17-.22v-.35H55V11.15h0V10.05a.18.18,0,1,0-.34,0v.35H49L53.23,9l-.64-.16h0L48.81,7.83h5.8v.35a.18.18,0,1,0,.34,0V7.09h0V3.59H52.11V3.24a.18.18,0,1,0-.34,0Z" transform="translate(-2.03 -3.02)"/><path class="cls-2" d="M59.6,15V13.9a.18.18,0,1,0-.34,0v.36H56.82V10.79H64L69,12.2H58v-.35c0-.12-.07-.22-.16-.22s-.17.1-.17.22v1.09c0,.12.07.22.17.22s.16-.1.16-.22v-.35H69.17v.35a.18.18,0,1,0,.34,0V11.85a.18.18,0,1,0-.34,0v0l-3.88-1.09H68v.35c0,.13.07.22.16.22s.17-.09.17-.22V10.05c0-.12-.07-.22-.17-.22s-.16.1-.16.22v.36h-4l-4.5-1.26,4.13-1.32H68v.35c0,.12.07.22.16.22s.17-.1.17-.22V7.09c0-.12-.07-.22-.17-.22S68,7,68,7.09v.35H64.74L69.17,6v.23c0,.13.08.22.17.22s.17-.09.17-.22V5.16a.18.18,0,1,0-.34,0v.35H58V5.16c0-.12-.07-.22-.16-.22s-.17.1-.17.22V6.25c0,.13.07.22.17.22s.16-.09.16-.22V5.9H68.39l-4.8,1.54H56.82V4h2.44v.35a.18.18,0,1,0,.34,0V3.24c0-.13-.08-.22-.17-.22s-.17.09-.17.22v.35H56.42V7.08h0V8.18a.18.18,0,1,0,.34,0V7.83h5.63L58.14,9.19l.64.16h0l3.78,1.06h-5.8v-.36a.18.18,0,1,0-.34,0v1.09h0v3.49h2.84V15c0,.13.08.23.17.23S59.6,15.12,59.6,15Z" transform="translate(-2.03 -3.02)"/><path class="cls-2" d="M79.41,3.24V4.33a.18.18,0,1,0,.34,0V4h2.44V7.44H75.06L70,6H81v.35c0,.12.07.22.16.22s.17-.1.17-.22V5.29c0-.12-.07-.22-.17-.22s-.16.1-.16.22v.35H69.84V5.29a.2.2,0,0,0-.17-.22c-.09,0-.16.1-.16.22V6.38c0,.12.07.22.16.22a.2.2,0,0,0,.17-.22v0l3.88,1.09H71.06V7.09c0-.13-.07-.22-.16-.22s-.17.09-.17.22V8.18a.2.2,0,0,0,.17.22c.09,0,.16-.1.16-.22V7.83h4l4.5,1.25L75.47,10.4H71.06v-.35c0-.12-.07-.22-.16-.22a.2.2,0,0,0-.17.22v1.09c0,.13.08.23.17.23s.16-.1.16-.23v-.35h3.21l-4.43,1.42V12a.2.2,0,0,0-.17-.22c-.09,0-.16.1-.16.22v1.09c0,.12.07.22.16.22a.2.2,0,0,0,.17-.22v-.35H81v.35c0,.12.07.22.16.22s.17-.1.17-.22V12c0-.12-.07-.22-.17-.22s-.16.1-.16.22v.35H70.62l4.8-1.54h6.77v3.47H79.75V13.9a.18.18,0,1,0-.34,0V15c0,.13.08.22.17.22s.17-.09.17-.22v-.35h2.84V11.15h0V10.05a.18.18,0,1,0-.34,0v.35H76.62L80.87,9l-.64-.16h0L76.45,7.83h5.8v.35a.18.18,0,1,0,.34,0V7.09h0V3.59H79.75V3.24a.18.18,0,1,0-.34,0Z" transform="translate(-2.03 -3.02)"/><path class="cls-2" d="M87.24,15V13.9a.18.18,0,1,0-.34,0v.36H84.45V10.79h7.14l5.06,1.41h-11v-.35c0-.12-.07-.22-.17-.22s-.16.1-.16.22v1.09c0,.12.07.22.16.22s.17-.1.17-.22v-.35H96.81v.35a.2.2,0,0,0,.17.22c.09,0,.16-.1.16-.22V11.85c0-.12-.07-.22-.16-.22a.2.2,0,0,0-.17.22v0l-3.88-1.09h2.66v.35c0,.13.07.22.16.22s.17-.09.17-.22V10.05a.2.2,0,0,0-.17-.22c-.09,0-.16.1-.16.22v.36h-4l-4.5-1.26,4.13-1.32h4.41v.35c0,.12.07.22.16.22a.2.2,0,0,0,.17-.22V7.09a.2.2,0,0,0-.17-.22c-.09,0-.16.1-.16.22v.35H92.38L96.81,6v.23c0,.13.08.22.17.22s.16-.09.16-.22V5.16c0-.12-.07-.22-.16-.22a.2.2,0,0,0-.17.22v.35H85.62V5.16c0-.12-.07-.22-.17-.22s-.16.1-.16.22V6.25c0,.13.07.22.16.22s.17-.09.17-.22V5.9H96l-4.8,1.54H84.45V4H86.9v.35a.18.18,0,1,0,.34,0V3.24c0-.13-.08-.22-.17-.22s-.17.09-.17.22v.35H84.06V7.08h0V8.18a.18.18,0,1,0,.34,0V7.83H90L85.78,9.19l.64.16h0l3.78,1.06H84.4v-.36a.18.18,0,1,0-.34,0v1.09h0v3.49H86.9V15c0,.13.08.23.17.23S87.24,15.12,87.24,15Z" transform="translate(-2.03 -3.02)"/><path class="cls-2" d="M107.05,3.24V4.33a.18.18,0,1,0,.34,0V4h2.44V7.44H102.7L97.64,6h11v.35c0,.12.07.22.16.22a.2.2,0,0,0,.17-.22V5.29a.2.2,0,0,0-.17-.22c-.09,0-.16.1-.16.22v.35H97.48V5.29a.18.18,0,1,0-.34,0V6.38a.18.18,0,1,0,.34,0v0l3.88,1.09H98.7V7.09c0-.13-.07-.22-.17-.22s-.16.09-.16.22V8.18c0,.12.07.22.16.22s.17-.1.17-.22V7.83h4l4.5,1.25-4.13,1.32H98.7v-.35c0-.12-.07-.22-.17-.22s-.16.1-.16.22v1.09c0,.13.07.23.16.23s.17-.1.17-.23v-.35h3.21l-4.43,1.42V12a.18.18,0,1,0-.34,0v1.09a.18.18,0,1,0,.34,0v-.35h11.19v.35c0,.12.07.22.16.22a.2.2,0,0,0,.17-.22V12a.2.2,0,0,0-.17-.22c-.09,0-.16.1-.16.22v.35H98.26l4.8-1.54h6.77v3.47h-2.44V13.9a.18.18,0,1,0-.34,0V15c0,.13.08.22.17.22s.17-.09.17-.22v-.35h2.83V11.15h0V10.05c0-.12-.07-.22-.16-.22a.2.2,0,0,0-.17.22v.35h-5.63L108.51,9l-.64-.16h0l-3.78-1.05h5.8v.35a.2.2,0,0,0,.17.22c.09,0,.16-.1.16-.22V7.09h0V3.59h-2.83V3.24a.18.18,0,1,0-.34,0Z" transform="translate(-2.03 -3.02)"/><path class="cls-2" d="M114.88,15V13.9a.18.18,0,1,0-.34,0v.36h-2.45V10.79h7.14l5.06,1.41h-11v-.35c0-.12-.07-.22-.17-.22s-.16.1-.16.22v1.09c0,.12.07.22.16.22s.17-.1.17-.22v-.35h11.19v.35a.2.2,0,0,0,.17.22c.09,0,.16-.1.16-.22V11.85c0-.12-.07-.22-.16-.22a.2.2,0,0,0-.17.22v0l-3.88-1.09h2.66v.35c0,.13.07.22.16.22s.17-.09.17-.22V10.05a.2.2,0,0,0-.17-.22c-.09,0-.16.1-.16.22v.36h-4l-4.5-1.26,4.13-1.32h4.41v.35c0,.12.07.22.16.22a.2.2,0,0,0,.17-.22V7.09a.2.2,0,0,0-.17-.22c-.09,0-.16.1-.16.22v.35H120L124.45,6v.23c0,.13.08.22.17.22s.16-.09.16-.22V5.16c0-.12-.07-.22-.16-.22a.2.2,0,0,0-.17.22v.35H113.26V5.16c0-.12-.07-.22-.17-.22s-.16.1-.16.22V6.25c0,.13.07.22.16.22s.17-.09.17-.22V5.9h10.41l-4.8,1.54h-6.78V4h2.45v.35a.18.18,0,1,0,.34,0V3.24c0-.13-.08-.22-.17-.22s-.17.09-.17.22v.35H111.7V7.08h0V8.18a.18.18,0,1,0,.34,0V7.83h5.63l-4.25,1.36.64.16h0l3.78,1.06H112v-.36a.18.18,0,1,0-.34,0v1.09h0v3.49h2.84V15c0,.13.08.23.17.23S114.88,15.12,114.88,15Z" transform="translate(-2.03 -3.02)"/><path class="cls-2" d="M134.69,3.24V4.33a.18.18,0,1,0,.34,0V4h2.44V7.44h-7.13L125.28,6h11v.35c0,.12.07.22.16.22a.2.2,0,0,0,.17-.22V5.29a.2.2,0,0,0-.17-.22c-.09,0-.16.1-.16.22v.35H125.12V5.29a.18.18,0,1,0-.34,0V6.38a.18.18,0,1,0,.34,0v0L129,7.44h-2.66V7.09c0-.13-.07-.22-.17-.22S126,7,126,7.09V8.18c0,.12.07.22.16.22s.17-.1.17-.22V7.83h4l4.5,1.25-4.13,1.32h-4.41v-.35c0-.12-.07-.22-.17-.22s-.16.1-.16.22v1.09c0,.13.07.23.16.23s.17-.1.17-.23v-.35h3.21l-4.43,1.42V12a.18.18,0,1,0-.34,0v1.09a.18.18,0,1,0,.34,0v-.35h11.19v.35c0,.12.07.22.16.22a.2.2,0,0,0,.17-.22V12a.2.2,0,0,0-.17-.22c-.09,0-.16.1-.16.22v.35H125.9l4.8-1.54h6.77v3.47H135V13.9a.18.18,0,1,0-.34,0V15c0,.13.08.22.17.22s.17-.09.17-.22v-.35h2.83V11.15h0V10.05c0-.12-.07-.22-.16-.22a.2.2,0,0,0-.17.22v.35H131.9L136.15,9l-.64-.16h0l-3.78-1.05h5.8v.35a.2.2,0,0,0,.17.22c.09,0,.16-.1.16-.22V7.09h0V3.59H135V3.24a.18.18,0,1,0-.34,0Z" transform="translate(-2.03 -3.02)"/><path class="cls-2" d="M142.52,15V13.9a.18.18,0,1,0-.34,0v.36h-2.45V10.79h7.14l5.06,1.41h-11v-.35c0-.12-.07-.22-.17-.22s-.16.1-.16.22v1.09c0,.12.07.22.16.22s.17-.1.17-.22v-.35h11.19v.35a.2.2,0,0,0,.17.22c.09,0,.16-.1.16-.22V11.85c0-.12-.07-.22-.16-.22a.2.2,0,0,0-.17.22v0l-3.88-1.09h2.66v.35c0,.13.07.22.16.22s.17-.09.17-.22V10.05a.2.2,0,0,0-.17-.22c-.09,0-.16.1-.16.22v.36h-4l-4.5-1.26,4.13-1.32h4.41v.35c0,.12.07.22.16.22a.2.2,0,0,0,.17-.22V7.09a.2.2,0,0,0-.17-.22c-.09,0-.16.1-.16.22v.35h-3.21L152.09,6v.23c0,.13.08.22.17.22s.16-.09.16-.22V5.16c0-.12-.07-.22-.16-.22a.2.2,0,0,0-.17.22v.35H140.9V5.16c0-.12-.07-.22-.17-.22s-.16.1-.16.22V6.25c0,.13.07.22.16.22s.17-.09.17-.22V5.9h10.41l-4.8,1.54h-6.78V4h2.45v.35a.18.18,0,1,0,.34,0V3.24c0-.13-.08-.22-.17-.22s-.17.09-.17.22v.35h-2.84V7.08h0V8.18a.18.18,0,1,0,.34,0V7.83h5.63l-4.25,1.36.64.16h0l3.78,1.06h-5.8v-.36a.18.18,0,1,0-.34,0v1.09h0v3.49h2.84V15c0,.13.08.23.17.23S142.52,15.12,142.52,15Z" transform="translate(-2.03 -3.02)"/><path class="cls-2" d="M162.33,3.24V4.33a.2.2,0,0,0,.17.22c.09,0,.16-.1.16-.22V4h2.45V7.44H158L152.92,6h11v.35c0,.12.07.22.16.22a.2.2,0,0,0,.17-.22V5.29a.2.2,0,0,0-.17-.22c-.09,0-.16.1-.16.22v.35H152.76V5.29a.18.18,0,1,0-.34,0V6.38a.18.18,0,1,0,.34,0v0l3.88,1.09H154V7.09c0-.13-.07-.22-.17-.22s-.16.09-.16.22V8.18c0,.12.07.22.16.22s.17-.1.17-.22V7.83h4l4.5,1.25-4.13,1.32H154v-.35c0-.12-.07-.22-.17-.22s-.16.1-.16.22v1.09c0,.13.07.23.16.23s.17-.1.17-.23v-.35h3.21l-4.43,1.42V12a.18.18,0,1,0-.34,0v1.09a.18.18,0,1,0,.34,0v-.35H164v.35c0,.12.07.22.16.22a.2.2,0,0,0,.17-.22V12a.2.2,0,0,0-.17-.22c-.09,0-.16.1-.16.22v.35H153.54l4.8-1.54h6.77v3.47h-2.45V13.9c0-.12-.07-.22-.16-.22a.2.2,0,0,0-.17.22V15c0,.13.08.22.17.22s.16-.09.16-.22v-.35h2.84V11.15h0V10.05c0-.12-.07-.22-.16-.22a.2.2,0,0,0-.17.22v.35h-5.63L163.79,9l-.64-.16h0l-3.79-1.05h5.81v.35a.2.2,0,0,0,.17.22c.09,0,.16-.1.16-.22V7.09h0V3.59h-2.84V3.24c0-.12-.07-.22-.16-.22A.2.2,0,0,0,162.33,3.24Z" transform="translate(-2.03 -3.02)"/><path class="cls-2" d="M170.15,15V13.9c0-.12-.07-.22-.16-.22a.2.2,0,0,0-.17.22v.36h-2.45V10.79h7.14l5.06,1.41h-11v-.35c0-.12-.07-.22-.17-.22s-.16.1-.16.22v1.09c0,.12.07.22.16.22s.17-.1.17-.22v-.35h11.19v.35c0,.12.07.22.17.22s.16-.1.16-.22V11.85c0-.12-.07-.22-.16-.22s-.17.1-.17.22v0l-3.88-1.09h2.65v.35c0,.13.08.22.17.22s.17-.09.17-.22V10.05a.18.18,0,1,0-.34,0v.36h-4L170,9.15l4.13-1.32h4.4v.35a.18.18,0,1,0,.34,0V7.09a.18.18,0,1,0-.34,0v.35h-3.2L179.73,6v.23c0,.13.07.22.17.22s.16-.09.16-.22V5.16c0-.12-.07-.22-.16-.22s-.17.1-.17.22v.35H168.54V5.16c0-.12-.07-.22-.17-.22s-.16.1-.16.22V6.25c0,.13.07.22.16.22s.17-.09.17-.22V5.9H179l-4.8,1.54h-6.78V4h2.45v.35a.2.2,0,0,0,.17.22c.09,0,.16-.1.16-.22V3.24c0-.13-.07-.22-.16-.22s-.17.09-.17.22v.35H167V7.08h0V8.18a.18.18,0,1,0,.34,0V7.83H173L168.7,9.19l.64.16h0l3.78,1.06h-5.8v-.36a.18.18,0,1,0-.34,0v1.09h0v3.49h2.84V15c0,.13.08.23.17.23S170.15,15.12,170.15,15Z" transform="translate(-2.03 -3.02)"/><path class="cls-2" d="M190,3.24V4.33a.2.2,0,0,0,.17.22c.09,0,.16-.1.16-.22V4h2.45V7.44h-7.13L180.56,6h11v.35a.18.18,0,1,0,.34,0V5.29a.18.18,0,1,0-.34,0v.35H180.4V5.29a.18.18,0,1,0-.34,0V6.38a.18.18,0,1,0,.34,0v0l3.88,1.09h-2.66V7.09c0-.13-.07-.22-.17-.22s-.16.09-.16.22V8.18c0,.12.07.22.16.22s.17-.1.17-.22V7.83h4l4.5,1.25L186,10.4h-4.41v-.35c0-.12-.07-.22-.17-.22s-.16.1-.16.22v1.09c0,.13.07.23.16.23s.17-.1.17-.23v-.35h3.2l-4.42,1.42V12a.18.18,0,1,0-.34,0v1.09a.18.18,0,1,0,.34,0v-.35h11.18v.35a.18.18,0,1,0,.34,0V12a.18.18,0,1,0-.34,0v.35h-10.4l4.8-1.54h6.77v3.47H190.3V13.9c0-.12-.07-.22-.16-.22a.2.2,0,0,0-.17.22V15c0,.13.08.22.17.22s.16-.09.16-.22v-.35h2.84V11.15h0V10.05c0-.12-.07-.22-.16-.22s-.17.1-.17.22v.35h-5.63L191.43,9l-.64-.16h0L187,7.83h5.81v.35c0,.12.07.22.17.22s.16-.1.16-.22V7.09h0V3.59H190.3V3.24c0-.12-.07-.22-.16-.22A.2.2,0,0,0,190,3.24Z" transform="translate(-2.03 -3.02)"/><path class="cls-2" d="M197.79,15V13.9c0-.12-.07-.22-.16-.22a.2.2,0,0,0-.17.22v.36H195V10.79h7.14l5.06,1.41h-11v-.35c0-.12-.07-.22-.17-.22s-.16.1-.16.22v1.09c0,.12.07.22.16.22s.17-.1.17-.22v-.35h11.19v.35c0,.12.07.22.17.22s.16-.1.16-.22V11.85c0-.12-.07-.22-.16-.22s-.17.1-.17.22v0l-3.88-1.09h2.65v.35c0,.13.08.22.17.22s.17-.09.17-.22V10.05a.18.18,0,1,0-.34,0v.36h-4l-4.49-1.26,4.13-1.32h4.4v.35a.18.18,0,1,0,.34,0V7.09a.18.18,0,1,0-.34,0v.35h-3.2L207.37,6v.23c0,.13.07.22.17.22s.16-.09.16-.22V5.16c0-.12-.07-.22-.16-.22s-.17.1-.17.22v.35H196.18V5.16c0-.12-.07-.22-.17-.22s-.16.1-.16.22V6.25c0,.13.07.22.16.22s.17-.09.17-.22V5.9h10.41l-4.8,1.54H195V4h2.45v.35a.2.2,0,0,0,.17.22c.09,0,.16-.1.16-.22V3.24c0-.13-.07-.22-.16-.22s-.17.09-.17.22v.35h-2.84V7.08h0V8.18a.18.18,0,1,0,.34,0V7.83h5.63l-4.26,1.36.65.16h0l3.78,1.06H195v-.36a.18.18,0,1,0-.34,0v1.09h0v3.49h2.84V15c0,.13.08.23.17.23S197.79,15.12,197.79,15Z" transform="translate(-2.03 -3.02)"/><path class="cls-2" d="M217.61,3.24V4.33a.2.2,0,0,0,.17.22c.09,0,.16-.1.16-.22V4h2.45V7.44h-7.13L208.2,6h11v.35a.18.18,0,1,0,.34,0V5.29a.18.18,0,1,0-.34,0v.35H208V5.29a.18.18,0,1,0-.34,0V6.38a.18.18,0,1,0,.34,0v0l3.88,1.09h-2.66V7.09c0-.13-.07-.22-.17-.22s-.16.09-.16.22V8.18c0,.12.07.22.16.22s.17-.1.17-.22V7.83h4l4.5,1.25-4.13,1.32h-4.41v-.35c0-.12-.07-.22-.17-.22s-.16.1-.16.22v1.09c0,.13.07.23.16.23s.17-.1.17-.23v-.35h3.2L208,12.21V12a.18.18,0,1,0-.34,0v1.09a.18.18,0,1,0,.34,0v-.35h11.18v.35a.18.18,0,1,0,.34,0V12a.18.18,0,1,0-.34,0v.35h-10.4l4.8-1.54h6.77v3.47h-2.45V13.9c0-.12-.07-.22-.16-.22a.2.2,0,0,0-.17.22V15c0,.13.08.22.17.22s.16-.09.16-.22v-.35h2.84V11.15h0V10.05c0-.12-.07-.22-.16-.22s-.17.1-.17.22v.35h-5.63L219.07,9l-.64-.16h0l-3.79-1.05h5.81v.35c0,.12.07.22.17.22s.16-.1.16-.22V7.09h0V3.59h-2.84V3.24c0-.12-.07-.22-.16-.22A.2.2,0,0,0,217.61,3.24Z" transform="translate(-2.03 -3.02)"/><path class="cls-2" d="M225.43,15V13.9c0-.12-.07-.22-.16-.22a.2.2,0,0,0-.17.22v.36h-2.45V10.79h7.14l5.06,1.41h-11v-.35c0-.12-.07-.22-.17-.22s-.16.1-.16.22v1.09c0,.12.07.22.16.22s.17-.1.17-.22v-.35H235v.35c0,.12.07.22.17.22s.16-.1.16-.22V11.85c0-.12-.07-.22-.16-.22s-.17.1-.17.22v0l-3.89-1.09h2.66v.35c0,.13.08.22.17.22s.17-.09.17-.22V10.05a.18.18,0,1,0-.34,0v.36h-4l-4.49-1.26,4.12-1.32h4.41v.35a.18.18,0,1,0,.34,0V7.09a.18.18,0,1,0-.34,0v.35h-3.2L235,6v.23c0,.13.07.22.17.22s.16-.09.16-.22V5.16c0-.12-.07-.22-.16-.22s-.17.1-.17.22v.35H223.82V5.16c0-.12-.07-.22-.17-.22s-.16.1-.16.22V6.25c0,.13.07.22.16.22s.17-.09.17-.22V5.9h10.41l-4.8,1.54h-6.78V4h2.45v.35a.2.2,0,0,0,.17.22c.09,0,.16-.1.16-.22V3.24c0-.13-.07-.22-.16-.22s-.17.09-.17.22v.35h-2.84V7.08h0V8.18a.18.18,0,1,0,.34,0V7.83h5.63L224,9.19l.65.16h0l3.78,1.06h-5.8v-.36a.18.18,0,1,0-.34,0v1.09h0v3.49h2.84V15c0,.13.08.23.17.23S225.43,15.12,225.43,15Z" transform="translate(-2.03 -3.02)"/><path class="cls-2" d="M245.25,3.24V4.33a.2.2,0,0,0,.17.22c.09,0,.16-.1.16-.22V4H248V7.44H240.9L235.84,6h11v.35a.18.18,0,1,0,.34,0V5.29a.18.18,0,1,0-.34,0v.35H235.68V5.29a.18.18,0,1,0-.34,0V6.38a.18.18,0,1,0,.34,0v0l3.88,1.09H236.9V7.09c0-.13-.07-.22-.17-.22s-.16.09-.16.22V8.18c0,.12.07.22.16.22s.17-.1.17-.22V7.83h4l4.5,1.25-4.13,1.32H236.9v-.35c0-.12-.07-.22-.17-.22s-.16.1-.16.22v1.09c0,.13.07.23.16.23s.17-.1.17-.23v-.35h3.2l-4.42,1.42V12a.18.18,0,1,0-.34,0v1.09a.18.18,0,1,0,.34,0v-.35h11.18v.35a.18.18,0,1,0,.34,0V12a.18.18,0,1,0-.34,0v.35h-10.4l4.8-1.54H248v3.47h-2.45V13.9c0-.12-.07-.22-.16-.22a.2.2,0,0,0-.17.22V15c0,.13.08.22.17.22s.16-.09.16-.22v-.35h2.84V11.15h0V10.05c0-.12-.07-.22-.16-.22s-.17.1-.17.22v.35h-5.63L246.71,9l-.64-.16h0l-3.78-1.05h5.81v.35c0,.12.07.22.17.22s.16-.1.16-.22V7.09h0V3.59h-2.84V3.24c0-.12-.07-.22-.16-.22A.2.2,0,0,0,245.25,3.24Z" transform="translate(-2.03 -3.02)"/><path class="cls-2" d="M253.07,15V13.9c0-.12-.07-.22-.16-.22s-.17.1-.17.22v.36h-2.45V10.79h7.14l5.06,1.41h-11v-.35a.2.2,0,0,0-.17-.22c-.09,0-.16.1-.16.22v1.09c0,.12.07.22.16.22a.2.2,0,0,0,.17-.22v-.35h11.19v.35c0,.12.07.22.17.22s.16-.1.16-.22V11.85c0-.12-.07-.22-.16-.22s-.17.1-.17.22v0l-3.89-1.09h2.66v.35c0,.13.08.22.17.22s.17-.09.17-.22V10.05a.18.18,0,1,0-.34,0v.36h-4l-4.49-1.26L257,7.83h4.41v.35a.18.18,0,1,0,.34,0V7.09a.18.18,0,1,0-.34,0v.35h-3.2L262.65,6v.23c0,.13.07.22.17.22s.16-.09.16-.22V5.16c0-.12-.07-.22-.16-.22s-.17.1-.17.22v.35H251.46V5.16a.2.2,0,0,0-.17-.22c-.09,0-.16.1-.16.22V6.25c0,.13.07.22.16.22s.17-.09.17-.22V5.9h10.4l-4.79,1.54h-6.78V4h2.45v.35c0,.12.07.22.17.22s.16-.1.16-.22V3.24c0-.13-.07-.22-.16-.22s-.17.09-.17.22v.35H249.9V7.08h0V8.18a.2.2,0,0,0,.17.22c.09,0,.16-.1.16-.22V7.83h5.63l-4.25,1.36.65.16h0L256,10.41h-5.81v-.36c0-.12-.07-.22-.16-.22a.2.2,0,0,0-.17.22v1.09h0v3.49h2.84V15c0,.13.07.23.17.23S253.07,15.12,253.07,15Z" transform="translate(-2.03 -3.02)"/><path class="cls-2" d="M272.89,3.24V4.33c0,.12.07.22.17.22s.16-.1.16-.22V4h2.45V7.44h-7.13L263.48,6h11v.35a.18.18,0,1,0,.34,0V5.29a.18.18,0,1,0-.34,0v.35H263.31V5.29c0-.12-.07-.22-.16-.22a.2.2,0,0,0-.17.22V6.38a.2.2,0,0,0,.17.22c.09,0,.16-.1.16-.22v0l3.89,1.09h-2.66V7.09c0-.13-.08-.22-.17-.22s-.16.09-.16.22V8.18c0,.12.07.22.16.22a.2.2,0,0,0,.17-.22V7.83h4l4.5,1.25L269,10.4h-4.41v-.35a.2.2,0,0,0-.17-.22c-.09,0-.16.1-.16.22v1.09c0,.13.07.23.16.23s.17-.1.17-.23v-.35h3.2l-4.43,1.42V12c0-.12-.07-.22-.16-.22A.2.2,0,0,0,263,12v1.09a.2.2,0,0,0,.17.22c.09,0,.16-.1.16-.22v-.35H274.5v.35a.18.18,0,1,0,.34,0V12a.18.18,0,1,0-.34,0v.35H264.1l4.8-1.54h6.77v3.47h-2.45V13.9c0-.12-.07-.22-.16-.22s-.17.1-.17.22V15c0,.13.07.22.17.22s.16-.09.16-.22v-.35h2.84V11.15h0V10.05c0-.12-.07-.22-.16-.22s-.17.1-.17.22v.35H270.1L274.35,9l-.64-.16h0l-3.78-1.05h5.81v.35c0,.12.07.22.17.22s.16-.1.16-.22V7.09h0V3.59h-2.84V3.24c0-.12-.07-.22-.16-.22S272.89,3.12,272.89,3.24Z" transform="translate(-2.03 -3.02)"/><path class="cls-2" d="M280.71,15V13.9c0-.12-.07-.22-.16-.22s-.17.1-.17.22v.36h-2.45V10.79h7.14l5.06,1.41h-11v-.35a.2.2,0,0,0-.17-.22c-.09,0-.16.1-.16.22v1.09c0,.12.07.22.16.22a.2.2,0,0,0,.17-.22v-.35h11.19v.35c0,.12.07.22.17.22s.16-.1.16-.22V11.85c0-.12-.07-.22-.16-.22s-.17.1-.17.22v0l-3.89-1.09h2.66v.35c0,.13.08.22.17.22s.17-.09.17-.22V10.05a.18.18,0,1,0-.34,0v.36h-4l-4.49-1.26,4.12-1.32h4.41v.35a.18.18,0,1,0,.34,0V7.09a.18.18,0,1,0-.34,0v.35h-3.2L290.29,6v.23c0,.13.07.22.17.22s.16-.09.16-.22V5.16c0-.12-.07-.22-.16-.22s-.17.1-.17.22v.35H279.1V5.16a.2.2,0,0,0-.17-.22c-.09,0-.16.1-.16.22V6.25c0,.13.07.22.16.22s.17-.09.17-.22V5.9h10.4l-4.79,1.54h-6.78V4h2.45v.35c0,.12.07.22.17.22s.16-.1.16-.22V3.24c0-.13-.07-.22-.16-.22s-.17.09-.17.22v.35h-2.84V7.08h0V8.18a.2.2,0,0,0,.17.22c.09,0,.16-.1.16-.22V7.83h5.63l-4.25,1.36.65.16h0l3.78,1.06h-5.81v-.36c0-.12-.07-.22-.16-.22a.2.2,0,0,0-.17.22v1.09h0v3.49h2.84V15c0,.13.07.23.17.23S280.71,15.12,280.71,15Z" transform="translate(-2.03 -3.02)"/><path class="cls-2" d="M300.53,3.24V4.33c0,.12.07.22.16.22s.17-.1.17-.22V4h2.45V7.44h-7.13L291.12,6h11v.35a.18.18,0,1,0,.34,0V5.29a.18.18,0,1,0-.34,0v.35H291V5.29c0-.12-.07-.22-.16-.22a.2.2,0,0,0-.17.22V6.38a.2.2,0,0,0,.17.22c.09,0,.16-.1.16-.22v0l3.89,1.09h-2.66V7.09c0-.13-.08-.22-.17-.22s-.16.09-.16.22V8.18c0,.12.07.22.16.22a.2.2,0,0,0,.17-.22V7.83h4l4.49,1.25-4.12,1.32h-4.41v-.35a.2.2,0,0,0-.17-.22c-.09,0-.16.1-.16.22v1.09c0,.13.07.23.16.23s.17-.1.17-.23v-.35h3.2L291,12.21V12c0-.12-.07-.22-.16-.22a.2.2,0,0,0-.17.22v1.09a.2.2,0,0,0,.17.22c.09,0,.16-.1.16-.22v-.35h11.19v.35a.18.18,0,1,0,.34,0V12a.18.18,0,1,0-.34,0v.35h-10.4l4.79-1.54h6.78v3.47h-2.45V13.9c0-.12-.07-.22-.17-.22s-.16.1-.16.22V15c0,.13.07.22.16.22s.17-.09.17-.22v-.35h2.84V11.15h0V10.05c0-.12-.07-.22-.16-.22s-.17.1-.17.22v.35h-5.63L302,9l-.64-.16h0l-3.78-1.05h5.81v.35c0,.12.07.22.17.22s.16-.1.16-.22V7.09h0V3.59h-2.84V3.24c0-.12-.07-.22-.17-.22S300.53,3.12,300.53,3.24Z" transform="translate(-2.03 -3.02)"/><path class="cls-2" d="M308.35,15V13.9c0-.12-.07-.22-.16-.22s-.17.1-.17.22v.36h-2.45V10.79h7.14l5.05,1.41h-11v-.35a.2.2,0,0,0-.17-.22c-.09,0-.16.1-.16.22v1.09c0,.12.07.22.16.22a.2.2,0,0,0,.17-.22v-.35h11.19v.35c0,.12.07.22.16.22a.2.2,0,0,0,.17-.22V11.85a.2.2,0,0,0-.17-.22c-.09,0-.16.1-.16.22v0L314,10.79h2.66v.35c0,.13.08.22.17.22s.17-.09.17-.22V10.05a.18.18,0,1,0-.34,0v.36h-4l-4.49-1.26,4.12-1.32h4.41v.35a.18.18,0,1,0,.34,0V7.09a.18.18,0,1,0-.34,0v.35h-3.2L317.93,6v.23c0,.13.07.22.16.22s.17-.09.17-.22V5.16a.2.2,0,0,0-.17-.22c-.09,0-.16.1-.16.22v.35H306.74V5.16a.2.2,0,0,0-.17-.22c-.09,0-.16.1-.16.22V6.25c0,.13.07.22.16.22s.17-.09.17-.22V5.9h10.4l-4.79,1.54h-6.78V4H308v.35c0,.12.07.22.17.22s.16-.1.16-.22V3.24c0-.13-.07-.22-.16-.22s-.17.09-.17.22v.35h-2.84V7.08h0V8.18a.2.2,0,0,0,.17.22c.09,0,.16-.1.16-.22V7.83h5.63l-4.25,1.36.65.16h0l3.78,1.06h-5.81v-.36c0-.12-.07-.22-.16-.22a.2.2,0,0,0-.17.22v1.09h0v3.49H308V15c0,.13.07.23.17.23S308.35,15.12,308.35,15Z" transform="translate(-2.03 -3.02)"/><path class="cls-2" d="M328.17,3.24V4.33c0,.12.07.22.16.22s.17-.1.17-.22V4H331V7.44h-7.13L318.76,6h11v.35a.18.18,0,1,0,.34,0V5.29a.18.18,0,1,0-.34,0v.35H318.59V5.29c0-.12-.07-.22-.16-.22a.2.2,0,0,0-.17.22V6.38a.2.2,0,0,0,.17.22c.09,0,.16-.1.16-.22v0l3.89,1.09h-2.66V7.09c0-.13-.08-.22-.17-.22s-.16.09-.16.22V8.18c0,.12.07.22.16.22a.2.2,0,0,0,.17-.22V7.83h4l4.49,1.25-4.12,1.32h-4.41v-.35a.2.2,0,0,0-.17-.22c-.09,0-.16.1-.16.22v1.09c0,.13.07.23.16.23s.17-.1.17-.23v-.35H323l-4.43,1.42V12c0-.12-.07-.22-.16-.22a.2.2,0,0,0-.17.22v1.09a.2.2,0,0,0,.17.22c.09,0,.16-.1.16-.22v-.35h11.19v.35a.18.18,0,1,0,.34,0V12a.18.18,0,1,0-.34,0v.35h-10.4l4.79-1.54H331v3.47H328.5V13.9c0-.12-.07-.22-.17-.22s-.16.1-.16.22V15c0,.13.07.22.16.22s.17-.09.17-.22v-.35h2.84V11.15h0V10.05a.2.2,0,0,0-.17-.22c-.09,0-.16.1-.16.22v.35h-5.63L329.63,9,329,8.88h0L325.2,7.83H331v.35c0,.12.07.22.16.22a.2.2,0,0,0,.17-.22V7.09h0V3.59H328.5V3.24c0-.12-.07-.22-.17-.22S328.17,3.12,328.17,3.24Z" transform="translate(-2.03 -3.02)"/><path class="cls-2" d="M336,15V13.9c0-.12-.07-.22-.16-.22s-.17.1-.17.22v.36h-2.45V10.79h7.14l5,1.41h-11v-.35a.18.18,0,1,0-.34,0v1.09a.18.18,0,1,0,.34,0v-.35h11.19v.35c0,.12.07.22.16.22a.2.2,0,0,0,.17-.22V11.85a.2.2,0,0,0-.17-.22c-.09,0-.16.1-.16.22v0l-3.89-1.09h2.66v.35c0,.13.08.22.17.22s.16-.09.16-.22V10.05c0-.12-.07-.22-.16-.22a.2.2,0,0,0-.17.22v.36h-4l-4.49-1.26,4.12-1.32h4.41v.35a.2.2,0,0,0,.17.22c.09,0,.16-.1.16-.22V7.09c0-.12-.07-.22-.16-.22a.2.2,0,0,0-.17.22v.35h-3.2L345.57,6v.23c0,.13.07.22.16.22s.17-.09.17-.22V5.16a.2.2,0,0,0-.17-.22c-.09,0-.16.1-.16.22v.35H334.38V5.16a.18.18,0,1,0-.34,0V6.25c0,.13.08.22.17.22s.17-.09.17-.22V5.9h10.4L340,7.44h-6.78V4h2.45v.35c0,.12.07.22.17.22s.16-.1.16-.22V3.24c0-.13-.07-.22-.16-.22s-.17.09-.17.22v.35h-2.84V7.08h0V8.18c0,.12.07.22.17.22s.16-.1.16-.22V7.83h5.63l-4.25,1.36.64.16h0L339,10.41h-5.81v-.36c0-.12-.07-.22-.16-.22s-.17.1-.17.22v1.09h0v3.49h2.84V15c0,.13.07.23.17.23S336,15.12,336,15Z" transform="translate(-2.03 -3.02)"/><path class="cls-2" d="M357.88,24.55h-1.09c-.12,0-.22.07-.22.16s.1.16.22.16h.35v2.3h-3.46V20.45l1.41-4.77V26.07h-.36c-.12,0-.22.07-.22.16s.1.16.22.16h1.09c.13,0,.23-.07.23-.16s-.1-.16-.23-.16h-.35V15.53h.35c.13,0,.23-.07.23-.16s-.1-.15-.23-.15h-1.09c-.12,0-.22.07-.22.15s.1.16.22.16h0l-1.08,3.66V16.68H354c.12,0,.22-.07.22-.15s-.1-.16-.22-.16h-1.09c-.13,0-.22.07-.22.16s.09.15.22.15h.35v3.81L352,24.73l-1.32-3.89V16.68h.35c.13,0,.22-.07.22-.15s-.09-.16-.22-.16H350c-.12,0-.22.07-.22.16s.1.15.22.15h.35v3l-1.42-4.17h.24c.12,0,.22-.07.22-.16s-.1-.15-.22-.15h-1.09c-.13,0-.22.07-.22.15s.09.16.22.16h.35V26.07h-.35c-.13,0-.22.07-.22.16s.09.16.22.16h1.09c.12,0,.22-.07.22-.16s-.1-.16-.22-.16h-.35v-9.8l1.53,4.52v6.38h-3.46v-2.3h.35c.12,0,.22-.07.22-.16s-.1-.16-.22-.16h-1.09c-.12,0-.22.07-.22.16s.1.16.22.16h.35v2.67h4.59c.13,0,.22-.07.22-.16s-.09-.15-.22-.15h-.35V21.92l1.36,4,.16-.61h0l1.06-3.56v5.47h-.35c-.13,0-.22.07-.22.15s.09.16.22.16h4.59V24.87h.35c.12,0,.22-.07.22-.16S358,24.55,357.88,24.55Z" transform="translate(-2.03 -3.02)"/><path class="cls-2" d="M346.12,31.92h1.09c.12,0,.22-.07.22-.15s-.1-.16-.22-.16h-.35V29.3h3.46V36l-1.41,4.76V30.4h.36c.12,0,.22-.07.22-.16s-.1-.15-.22-.15h-1.09c-.13,0-.23.07-.23.15s.1.16.23.16h.35V41h-.35c-.13,0-.23.07-.23.15s.1.16.23.16h1.09c.12,0,.22-.07.22-.16s-.1-.15-.22-.15h0l1.08-3.66v2.5H350c-.12,0-.22.07-.22.16s.1.15.22.15h1.09c.13,0,.22-.07.22-.15s-.09-.16-.22-.16h-.35V36L352,31.75l1.32,3.89v4.15h-.35c-.13,0-.22.07-.22.16s.09.15.22.15H354c.12,0,.22-.07.22-.15s-.1-.16-.22-.16h-.35v-3L355.1,41h-.24c-.12,0-.22.07-.22.15s.1.16.22.16H356c.13,0,.22-.07.22-.16S356.08,41,356,41h-.35V30.4H356c.13,0,.22-.07.22-.16s-.09-.15-.22-.15h-1.09c-.12,0-.22.07-.22.15s.1.16.22.16h.35v9.81l-1.53-4.52V29.3h3.46v2.31h-.35c-.12,0-.22.07-.22.16s.1.15.22.15h1.09c.12,0,.22-.07.22-.15s-.1-.16-.22-.16h-.35V28.93h-4.59c-.13,0-.22.08-.22.16s.09.16.22.16h.35v5.3l-1.36-4-.16.6h0l-1.06,3.56V29.25h.35c.13,0,.22-.07.22-.16s-.09-.16-.22-.16h-4.59v2.68h-.35c-.12,0-.22.07-.22.16S346,31.92,346.12,31.92Z" transform="translate(-2.03 -3.02)"/><path class="cls-2" d="M357.88,50.6h-1.09c-.12,0-.22.07-.22.15s.1.16.22.16h.35v2.31h-3.46V46.49l1.41-4.76V52.12h-.36c-.12,0-.22.07-.22.15s.1.16.22.16h1.09c.13,0,.23-.07.23-.16s-.1-.15-.23-.15h-.35V41.57h.35c.13,0,.23-.07.23-.15s-.1-.16-.23-.16h-1.09c-.12,0-.22.07-.22.16s.1.15.22.15h0l-1.08,3.66v-2.5H354c.12,0,.22-.07.22-.16s-.1-.16-.22-.16h-1.09c-.13,0-.22.07-.22.16s.09.16.22.16h.35v3.8L352,50.77l-1.32-3.89V42.73h.35c.13,0,.22-.07.22-.16s-.09-.16-.22-.16H350c-.12,0-.22.07-.22.16s.1.16.22.16h.35v3l-1.42-4.18h.24c.12,0,.22-.07.22-.15s-.1-.16-.22-.16h-1.09c-.13,0-.22.07-.22.16s.09.15.22.15h.35V52.12h-.35c-.13,0-.22.07-.22.15s.09.16.22.16h1.09c.12,0,.22-.07.22-.16s-.1-.15-.22-.15h-.35V42.31l1.53,4.52v6.39h-3.46V50.91h.35c.12,0,.22-.07.22-.16s-.1-.15-.22-.15h-1.09c-.12,0-.22.07-.22.15s.1.16.22.16h.35v2.67h4.59c.13,0,.22-.07.22-.15s-.09-.16-.22-.16h-.35V48l1.36,4,.16-.61h0l1.06-3.56v5.47h-.35c-.13,0-.22.07-.22.16s.09.15.22.15h4.59V50.91h.35c.12,0,.22-.07.22-.16S358,50.6,357.88,50.6Z" transform="translate(-2.03 -3.02)"/><path class="cls-2" d="M346.12,58h1.09c.12,0,.22-.07.22-.16s-.1-.16-.22-.16h-.35v-2.3h3.46v6.72l-1.41,4.77V56.45h.36c.12,0,.22-.07.22-.16s-.1-.16-.22-.16h-1.09c-.13,0-.23.07-.23.16s.1.16.23.16h.35V67h-.35c-.13,0-.23.07-.23.16s.1.15.23.15h1.09c.12,0,.22-.07.22-.15s-.1-.16-.22-.16h0l1.08-3.66v2.5H350c-.12,0-.22.07-.22.16s.1.16.22.16h1.09c.13,0,.22-.07.22-.16s-.09-.16-.22-.16h-.35V62L352,57.79l1.32,3.89v4.15h-.35c-.13,0-.22.07-.22.16s.09.16.22.16H354c.12,0,.22-.07.22-.16s-.1-.16-.22-.16h-.35v-3L355.1,67h-.24c-.12,0-.22.07-.22.16s.1.15.22.15H356c.13,0,.22-.07.22-.15S356.08,67,356,67h-.35V56.45H356c.13,0,.22-.07.22-.16s-.09-.16-.22-.16h-1.09c-.12,0-.22.07-.22.16s.1.16.22.16h.35v9.8l-1.53-4.52V55.35h3.46v2.3h-.35c-.12,0-.22.07-.22.16s.1.16.22.16h1.09c.12,0,.22-.07.22-.16s-.1-.16-.22-.16h-.35V55h-4.59c-.13,0-.22.07-.22.15s.09.16.22.16h.35V60.6l-1.36-4-.16.61h0l-1.06,3.56V55.29h.35c.13,0,.22-.07.22-.16s-.09-.15-.22-.15h-4.59v2.67h-.35c-.12,0-.22.07-.22.16S346,58,346.12,58Z" transform="translate(-2.03 -3.02)"/><path class="cls-2" d="M357.88,76.64h-1.09c-.12,0-.22.07-.22.15s.1.16.22.16h.35v2.31h-3.46V72.54l1.41-4.77V78.16h-.36c-.12,0-.22.07-.22.16s.1.15.22.15h1.09c.13,0,.23-.07.23-.15s-.1-.16-.23-.16h-.35V67.62h.35c.13,0,.23-.07.23-.16s-.1-.16-.23-.16h-1.09c-.12,0-.22.07-.22.16s.1.16.22.16h0l-1.08,3.66V68.77H354c.12,0,.22-.07.22-.16s-.1-.15-.22-.15h-1.09c-.13,0-.22.07-.22.15s.09.16.22.16h.35v3.81L352,76.81l-1.32-3.88V68.77h.35c.13,0,.22-.07.22-.16s-.09-.15-.22-.15H350c-.12,0-.22.07-.22.15s.1.16.22.16h.35v3l-1.42-4.17h.24c.12,0,.22-.07.22-.16s-.1-.16-.22-.16h-1.09c-.13,0-.22.07-.22.16s.09.16.22.16h.35V78.16h-.35c-.13,0-.22.07-.22.16s.09.15.22.15h1.09c.12,0,.22-.07.22-.15s-.1-.16-.22-.16h-.35V68.35l1.53,4.53v6.38h-3.46V77h.35c.12,0,.22-.07.22-.16s-.1-.15-.22-.15h-1.09c-.12,0-.22.07-.22.15s.1.16.22.16h.35v2.68h4.59c.13,0,.22-.07.22-.16s-.09-.16-.22-.16h-.35V74l1.36,4,.16-.6h0l1.06-3.57v5.47h-.35c-.13,0-.22.07-.22.16s.09.16.22.16h4.59V77h.35c.12,0,.22-.07.22-.16S358,76.64,357.88,76.64Z" transform="translate(-2.03 -3.02)"/><path class="cls-2" d="M346.12,84h1.09c.12,0,.22-.07.22-.16s-.1-.15-.22-.15h-.35V81.39h3.46v6.72l-1.41,4.77V82.49h.36c.12,0,.22-.07.22-.16s-.1-.15-.22-.15h-1.09c-.13,0-.23.07-.23.15s.1.16.23.16h.35V93h-.35c-.13,0-.23.07-.23.16s.1.16.23.16h1.09c.12,0,.22-.07.22-.16s-.1-.16-.22-.16h0l1.08-3.66v2.51H350c-.12,0-.22.07-.22.16s.1.15.22.15h1.09c.13,0,.22-.07.22-.15s-.09-.16-.22-.16h-.35V88.07L352,83.84l1.32,3.88v4.16h-.35c-.13,0-.22.07-.22.16s.09.15.22.15H354c.12,0,.22-.07.22-.15s-.1-.16-.22-.16h-.35v-3L355.1,93h-.24c-.12,0-.22.07-.22.16s.1.16.22.16H356c.13,0,.22-.07.22-.16S356.08,93,356,93h-.35V82.49H356c.13,0,.22-.07.22-.16s-.09-.15-.22-.15h-1.09c-.12,0-.22.07-.22.15s.1.16.22.16h.35v9.8l-1.53-4.52V81.39h3.46V83.7h-.35c-.12,0-.22.07-.22.15s.1.16.22.16h1.09c.12,0,.22-.07.22-.16s-.1-.15-.22-.15h-.35V81h-4.59c-.13,0-.22.07-.22.16s.09.16.22.16h.35v5.3l-1.36-4-.16.61h0l-1.06,3.57V81.34h.35c.13,0,.22-.07.22-.16s-.09-.16-.22-.16h-4.59V83.7h-.35c-.12,0-.22.07-.22.15S346,84,346.12,84Z" transform="translate(-2.03 -3.02)"/><path class="cls-2" d="M357.88,102.68h-1.09c-.12,0-.22.07-.22.16s.1.16.22.16h.35v2.3h-3.46V98.58l1.41-4.77V104.2h-.36c-.12,0-.22.07-.22.16s.1.16.22.16h1.09c.13,0,.23-.07.23-.16s-.1-.16-.23-.16h-.35V93.66h.35c.13,0,.23-.07.23-.16s-.1-.15-.23-.15h-1.09c-.12,0-.22.07-.22.15s.1.16.22.16h0l-1.08,3.66V94.81H354c.12,0,.22-.07.22-.15s-.1-.16-.22-.16h-1.09c-.13,0-.22.07-.22.16s.09.15.22.15h.35v3.81L352,102.86,350.71,99V94.81h.35c.13,0,.22-.07.22-.15s-.09-.16-.22-.16H350c-.12,0-.22.07-.22.16s.1.15.22.15h.35v3l-1.42-4.17h.24c.12,0,.22-.07.22-.16s-.1-.15-.22-.15h-1.09c-.13,0-.22.07-.22.15s.09.16.22.16h.35V104.2h-.35c-.13,0-.22.07-.22.16s.09.16.22.16h1.09c.12,0,.22-.07.22-.16s-.1-.16-.22-.16h-.35V94.4l1.53,4.52v6.38h-3.46V103h.35c.12,0,.22-.07.22-.16s-.1-.16-.22-.16h-1.09c-.12,0-.22.07-.22.16s.1.16.22.16h.35v2.67h4.59c.13,0,.22-.07.22-.16s-.09-.15-.22-.15h-.35v-5.31l1.36,4,.16-.61h0l1.06-3.56v5.47h-.35c-.13,0-.22.07-.22.15s.09.16.22.16h4.59V103h.35c.12,0,.22-.07.22-.16S358,102.68,357.88,102.68Z" transform="translate(-2.03 -3.02)"/><path class="cls-2" d="M346.12,110.05h1.09c.12,0,.22-.07.22-.15s-.1-.16-.22-.16h-.35v-2.31h3.46v6.73l-1.41,4.76V108.53h.36c.12,0,.22-.07.22-.16s-.1-.15-.22-.15h-1.09c-.13,0-.23.07-.23.15s.1.16.23.16h.35v10.55h-.35c-.13,0-.23.07-.23.15s.1.16.23.16h1.09c.12,0,.22-.07.22-.16s-.1-.15-.22-.15h0l1.08-3.66v2.5H350c-.12,0-.22.07-.22.16s.1.16.22.16h1.09c.13,0,.22-.08.22-.16s-.09-.16-.22-.16h-.35v-3.81l1.26-4.23,1.32,3.89v4.15h-.35c-.13,0-.22.07-.22.16s.09.16.22.16H354c.12,0,.22-.08.22-.16s-.1-.16-.22-.16h-.35v-3l1.42,4.18h-.24c-.12,0-.22.07-.22.15s.1.16.22.16H356c.13,0,.22-.07.22-.16s-.09-.15-.22-.15h-.35V108.53H356c.13,0,.22-.07.22-.16s-.09-.15-.22-.15h-1.09c-.12,0-.22.07-.22.15s.1.16.22.16h.35v9.81l-1.53-4.52v-6.39h3.46v2.31h-.35c-.12,0-.22.07-.22.16s.1.15.22.15h1.09c.12,0,.22-.07.22-.15s-.1-.16-.22-.16h-.35v-2.68h-4.59c-.13,0-.22.08-.22.16s.09.16.22.16h.35v5.3l-1.36-4-.16.6h0l-1.06,3.56v-5.47h.35c.13,0,.22-.07.22-.16s-.09-.16-.22-.16h-4.59v2.68h-.35c-.12,0-.22.07-.22.16S346,110.05,346.12,110.05Z" transform="translate(-2.03 -3.02)"/><path class="cls-2" d="M357.88,128.73h-1.09c-.12,0-.22.07-.22.15s.1.16.22.16h.35v2.31h-3.46v-6.73l1.41-4.76v10.39h-.36c-.12,0-.22.07-.22.15s.1.16.22.16h1.09c.13,0,.23-.07.23-.16s-.1-.15-.23-.15h-.35V119.7h.35c.13,0,.23-.07.23-.15s-.1-.16-.23-.16h-1.09c-.12,0-.22.07-.22.16s.1.15.22.15h0l-1.08,3.66v-2.5H354c.12,0,.22-.07.22-.16s-.1-.16-.22-.16h-1.09c-.13,0-.22.07-.22.16s.09.16.22.16h.35v3.8L352,128.9,350.71,125v-4.15h.35c.13,0,.22-.07.22-.16s-.09-.16-.22-.16H350c-.12,0-.22.07-.22.16s.1.16.22.16h.35v3l-1.42-4.18h.24c.12,0,.22-.07.22-.15s-.1-.16-.22-.16h-1.09c-.13,0-.22.07-.22.16s.09.15.22.15h.35v10.55h-.35c-.13,0-.22.07-.22.15s.09.16.22.16h1.09c.12,0,.22-.07.22-.16s-.1-.15-.22-.15h-.35v-9.81l1.53,4.52v6.39h-3.46V129h.35c.12,0,.22-.07.22-.16s-.1-.15-.22-.15h-1.09c-.12,0-.22.07-.22.15s.1.16.22.16h.35v2.67h4.59c.13,0,.22-.07.22-.15s-.09-.16-.22-.16h-.35v-5.3l1.36,4,.16-.6h0l1.06-3.56v5.47h-.35c-.13,0-.22.07-.22.16s.09.15.22.15h4.59V129h.35c.12,0,.22-.07.22-.16S358,128.73,357.88,128.73Z" transform="translate(-2.03 -3.02)"/><path class="cls-2" d="M346.12,136.1h1.09c.12,0,.22-.07.22-.16s-.1-.16-.22-.16h-.35v-2.3h3.46v6.72L348.91,145V134.58h.36c.12,0,.22-.07.22-.16s-.1-.16-.22-.16h-1.09c-.13,0-.23.07-.23.16s.1.16.23.16h.35v10.54h-.35c-.13,0-.23.07-.23.16s.1.15.23.15h1.09c.12,0,.22-.07.22-.15s-.1-.16-.22-.16h0l1.08-3.66V144H350c-.12,0-.22.08-.22.16s.1.16.22.16h1.09c.13,0,.22-.07.22-.16s-.09-.16-.22-.16h-.35v-3.8l1.26-4.24,1.32,3.89V144h-.35c-.13,0-.22.08-.22.16s.09.16.22.16H354c.12,0,.22-.07.22-.16s-.1-.16-.22-.16h-.35v-3l1.42,4.17h-.24c-.12,0-.22.07-.22.16s.1.15.22.15H356c.13,0,.22-.07.22-.15s-.09-.16-.22-.16h-.35V134.58H356c.13,0,.22-.07.22-.16s-.09-.16-.22-.16h-1.09c-.12,0-.22.07-.22.16s.1.16.22.16h.35v9.8l-1.53-4.52v-6.38h3.46v2.3h-.35c-.12,0-.22.07-.22.16s.1.16.22.16h1.09c.12,0,.22-.07.22-.16s-.1-.16-.22-.16h-.35v-2.67h-4.59c-.13,0-.22.07-.22.15s.09.16.22.16h.35v5.31l-1.36-4-.16.61h0l-1.06,3.56v-5.47h.35c.13,0,.22-.07.22-.16s-.09-.15-.22-.15h-4.59v2.67h-.35c-.12,0-.22.07-.22.16S346,136.1,346.12,136.1Z" transform="translate(-2.03 -3.02)"/><path class="cls-2" d="M357.88,154.77h-1.09c-.12,0-.22.07-.22.16s.1.15.22.15h.35v2.31h-3.46v-6.72l1.41-4.77v10.39h-.36c-.12,0-.22.07-.22.16s.1.15.22.15h1.09c.13,0,.23-.07.23-.15s-.1-.16-.23-.16h-.35V145.75h.35c.13,0,.23-.07.23-.16s-.1-.16-.23-.16h-1.09c-.12,0-.22.07-.22.16s.1.16.22.16h0l-1.08,3.66V146.9H354c.12,0,.22-.07.22-.16s-.1-.15-.22-.15h-1.09c-.13,0-.22.07-.22.15s.09.16.22.16h.35v3.81L352,154.94l-1.32-3.88V146.9h.35c.13,0,.22-.07.22-.16s-.09-.15-.22-.15H350c-.12,0-.22.07-.22.15s.1.16.22.16h.35v3l-1.42-4.17h.24c.12,0,.22-.07.22-.16s-.1-.16-.22-.16h-1.09c-.13,0-.22.07-.22.16s.09.16.22.16h.35v10.54h-.35c-.13,0-.22.07-.22.16s.09.15.22.15h1.09c.12,0,.22-.07.22-.15s-.1-.16-.22-.16h-.35v-9.8l1.53,4.52v6.38h-3.46v-2.31h.35c.12,0,.22-.07.22-.15s-.1-.16-.22-.16h-1.09c-.12,0-.22.07-.22.16s.1.15.22.15h.35v2.68h4.59c.13,0,.22-.07.22-.16s-.09-.16-.22-.16h-.35v-5.3l1.36,4,.16-.6h0l1.06-3.57v5.47h-.35c-.13,0-.22.07-.22.16s.09.16.22.16h4.59v-2.68h.35c.12,0,.22-.07.22-.15S358,154.77,357.88,154.77Z" transform="translate(-2.03 -3.02)"/><path class="cls-2" d="M346.12,162.14h1.09c.12,0,.22-.07.22-.16s-.1-.15-.22-.15h-.35v-2.31h3.46v6.72L348.91,171V160.62h.36c.12,0,.22-.07.22-.16s-.1-.15-.22-.15h-1.09c-.13,0-.23.07-.23.15s.1.16.23.16h.35v10.54h-.35c-.13,0-.23.07-.23.16s.1.16.23.16h1.09c.12,0,.22-.07.22-.16s-.1-.16-.22-.16h0l1.08-3.66V170H350c-.12,0-.22.07-.22.16s.1.15.22.15h1.09c.13,0,.22-.07.22-.15s-.09-.16-.22-.16h-.35V166.2L352,162l1.32,3.88V170h-.35c-.13,0-.22.07-.22.16s.09.15.22.15H354c.12,0,.22-.07.22-.15s-.1-.16-.22-.16h-.35v-3l1.42,4.17h-.24c-.12,0-.22.07-.22.16s.1.16.22.16H356c.13,0,.22-.07.22-.16s-.09-.16-.22-.16h-.35V160.62H356c.13,0,.22-.07.22-.16s-.09-.15-.22-.15h-1.09c-.12,0-.22.07-.22.15s.1.16.22.16h.35v9.8l-1.53-4.52v-6.38h3.46v2.31h-.35c-.12,0-.22.07-.22.15s.1.16.22.16h1.09c.12,0,.22-.07.22-.16s-.1-.15-.22-.15h-.35v-2.68h-4.59c-.13,0-.22.07-.22.16s.09.16.22.16h.35v5.3l-1.36-4-.16.6h0l-1.06,3.57v-5.47h.35c.13,0,.22-.07.22-.16s-.09-.16-.22-.16h-4.59v2.68h-.35c-.12,0-.22.07-.22.15S346,162.14,346.12,162.14Z" transform="translate(-2.03 -3.02)"/><path class="cls-2" d="M336,183.46v-1.09c0-.13-.07-.23-.16-.23s-.17.1-.17.23v.35h-2.45v-3.47h7.14l5,1.41h-11v-.35a.18.18,0,1,0-.34,0v1.09a.18.18,0,1,0,.34,0v-.35h11.19v.35c0,.12.07.22.16.22s.17-.1.17-.22v-1.09c0-.12-.07-.22-.17-.22s-.16.1-.16.22v0l-3.89-1.09h2.66v.35c0,.13.08.23.17.23s.16-.1.16-.23v-1.09c0-.12-.07-.22-.16-.22a.2.2,0,0,0-.17.22v.36h-4l-4.49-1.26,4.12-1.32h4.41v.35a.2.2,0,0,0,.17.22c.09,0,.16-.1.16-.22v-1.09c0-.12-.07-.22-.16-.22a.2.2,0,0,0-.17.22v.35h-3.2l4.43-1.42v.24c0,.12.07.21.16.21s.17-.09.17-.21v-1.1c0-.12-.07-.22-.17-.22s-.16.1-.16.22V174H334.38v-.36a.18.18,0,1,0-.34,0v1.1a.17.17,0,1,0,.34,0v-.36h10.4L340,175.9h-6.78v-3.46h2.45v.35c0,.12.07.22.17.22s.16-.1.16-.22V171.7c0-.12-.07-.22-.16-.22s-.17.1-.17.22v.35h-2.84v3.5h0v1.09a.2.2,0,0,0,.17.22c.09,0,.16-.1.16-.22v-.35h5.63l-4.25,1.36.65.16h0l3.78,1.06h-5.81v-.36c0-.12-.07-.22-.16-.22a.2.2,0,0,0-.17.22v1.09h0v3.49h2.84v.36c0,.12.07.22.17.22S336,183.58,336,183.46Z" transform="translate(-2.03 -3.02)"/><path class="cls-2" d="M328.17,171.7v1.09c0,.12.07.22.16.22s.17-.1.17-.22v-.35H331v3.46h-7.13l-5.06-1.41h11v.35c0,.13.08.22.17.22s.17-.09.17-.22v-1.09a.18.18,0,1,0-.34,0v.35H318.59v-.35c0-.12-.07-.22-.16-.22a.2.2,0,0,0-.17.22v1.09c0,.13.08.22.17.22s.16-.09.16-.22v0l3.89,1.08h-2.66v-.35a.2.2,0,0,0-.17-.22c-.09,0-.16.1-.16.22v1.09c0,.12.07.22.16.22a.2.2,0,0,0,.17-.22v-.35h4l4.49,1.25-4.12,1.33h-4.41v-.36a.2.2,0,0,0-.17-.22c-.09,0-.16.1-.16.22v1.1c0,.12.07.22.16.22a.2.2,0,0,0,.17-.22v-.36H323l-4.43,1.42v-.23c0-.12-.07-.22-.16-.22a.2.2,0,0,0-.17.22v1.09a.2.2,0,0,0,.17.22c.09,0,.16-.1.16-.22v-.35h11.19v.35a.18.18,0,1,0,.34,0v-1.09a.18.18,0,1,0-.34,0v.35h-10.4l4.79-1.54H331v3.47H328.5v-.36c0-.12-.07-.22-.17-.22s-.16.1-.16.22v1.1c0,.12.07.22.16.22s.17-.1.17-.22v-.36h2.84v-3.49h0v-1.1c0-.12-.07-.22-.17-.22s-.16.1-.16.22v.36h-5.63l4.25-1.37-.64-.16h0l-3.78-1.05H331v.35c0,.12.07.22.16.22s.17-.1.17-.22v-1.09h0v-3.5H328.5v-.35c0-.12-.07-.22-.17-.22S328.17,171.58,328.17,171.7Z" transform="translate(-2.03 -3.02)"/><path class="cls-2" d="M308.35,183.46v-1.09c0-.13-.07-.23-.16-.23s-.17.1-.17.23v.35h-2.45v-3.47h7.14l5.06,1.41h-11v-.35a.2.2,0,0,0-.17-.22c-.09,0-.16.1-.16.22v1.09c0,.12.07.22.16.22a.2.2,0,0,0,.17-.22v-.35h11.19v.35c0,.12.07.22.16.22s.17-.1.17-.22v-1.09c0-.12-.07-.22-.17-.22s-.16.1-.16.22v0L314,179.25h2.66v.35c0,.13.08.23.17.23s.17-.1.17-.23v-1.09a.18.18,0,1,0-.34,0v.36h-4l-4.49-1.26,4.12-1.32h4.41v.35a.18.18,0,1,0,.34,0v-1.09a.18.18,0,1,0-.34,0v.35h-3.2l4.43-1.42v.24c0,.12.07.21.16.21s.17-.09.17-.21v-1.1c0-.12-.07-.22-.17-.22s-.16.1-.16.22V174H306.74v-.36a.2.2,0,0,0-.17-.22c-.09,0-.16.1-.16.22v1.1c0,.12.07.21.16.21a.19.19,0,0,0,.17-.21v-.36h10.4l-4.79,1.54h-6.78v-3.46H308v.35c0,.12.07.22.17.22s.16-.1.16-.22V171.7c0-.12-.07-.22-.16-.22s-.17.1-.17.22v.35h-2.84v3.5h0v1.09a.2.2,0,0,0,.17.22c.09,0,.16-.1.16-.22v-.35h5.63l-4.25,1.36.65.16h0l3.78,1.06h-5.81v-.36c0-.12-.07-.22-.16-.22a.2.2,0,0,0-.17.22v1.09h0v3.49H308v.36c0,.12.07.22.17.22S308.35,183.58,308.35,183.46Z" transform="translate(-2.03 -3.02)"/><path class="cls-2" d="M300.53,171.7v1.09c0,.12.07.22.16.22s.17-.1.17-.22v-.35h2.45v3.46h-7.13l-5.06-1.41h11v.35c0,.13.08.22.17.22s.17-.09.17-.22v-1.09a.18.18,0,1,0-.34,0v.35H291v-.35c0-.12-.07-.22-.16-.22a.2.2,0,0,0-.17.22v1.09c0,.13.08.22.17.22s.16-.09.16-.22v0l3.89,1.08h-2.66v-.35a.2.2,0,0,0-.17-.22c-.09,0-.16.1-.16.22v1.09c0,.12.07.22.16.22a.2.2,0,0,0,.17-.22v-.35h4l4.5,1.25-4.13,1.33h-4.41v-.36a.2.2,0,0,0-.17-.22c-.09,0-.16.1-.16.22v1.1c0,.12.07.22.16.22a.2.2,0,0,0,.17-.22v-.36h3.2L291,180.67v-.23c0-.12-.07-.22-.16-.22a.2.2,0,0,0-.17.22v1.09a.2.2,0,0,0,.17.22c.09,0,.16-.1.16-.22v-.35h11.19v.35a.18.18,0,1,0,.34,0v-1.09a.18.18,0,1,0-.34,0v.35h-10.4l4.79-1.54h6.78v3.47h-2.45v-.36c0-.12-.07-.22-.17-.22s-.16.1-.16.22v1.1c0,.12.07.22.16.22s.17-.1.17-.22v-.36h2.84v-3.49h0v-1.1c0-.12-.07-.22-.16-.22s-.17.1-.17.22v.36h-5.63L302,177.5l-.64-.16h0l-3.78-1.05h5.81v.35c0,.12.07.22.17.22s.16-.1.16-.22v-1.09h0v-3.5h-2.84v-.35c0-.12-.07-.22-.17-.22S300.53,171.58,300.53,171.7Z" transform="translate(-2.03 -3.02)"/><path class="cls-2" d="M280.71,183.46v-1.09c0-.13-.07-.23-.16-.23s-.17.1-.17.23v.35h-2.45v-3.47h7.14l5.06,1.41h-11v-.35a.2.2,0,0,0-.17-.22c-.09,0-.16.1-.16.22v1.09c0,.12.07.22.16.22a.2.2,0,0,0,.17-.22v-.35h11.19v.35c0,.12.07.22.17.22s.16-.1.16-.22v-1.09c0-.12-.07-.22-.16-.22s-.17.1-.17.22v0l-3.89-1.09h2.66v.35c0,.13.08.23.17.23s.17-.1.17-.23v-1.09a.18.18,0,1,0-.34,0v.36h-4l-4.49-1.26,4.12-1.32h4.41v.35a.18.18,0,1,0,.34,0v-1.09a.18.18,0,1,0-.34,0v.35h-3.2l4.43-1.42v.24c0,.12.07.21.17.21s.16-.09.16-.21v-1.1c0-.12-.07-.22-.16-.22s-.17.1-.17.22V174H279.1v-.36a.2.2,0,0,0-.17-.22c-.09,0-.16.1-.16.22v1.1c0,.12.07.21.16.21a.19.19,0,0,0,.17-.21v-.36h10.4l-4.79,1.54h-6.78v-3.46h2.45v.35c0,.12.07.22.17.22s.16-.1.16-.22V171.7c0-.12-.07-.22-.16-.22s-.17.1-.17.22v.35h-2.84v3.5h0v1.09a.2.2,0,0,0,.17.22c.09,0,.16-.1.16-.22v-.35h5.63l-4.25,1.36.65.16h0l3.78,1.06h-5.81v-.36c0-.12-.07-.22-.16-.22a.2.2,0,0,0-.17.22v1.09h0v3.49h2.84v.36c0,.12.07.22.17.22S280.71,183.58,280.71,183.46Z" transform="translate(-2.03 -3.02)"/><path class="cls-2" d="M272.89,171.7v1.09c0,.12.07.22.17.22s.16-.1.16-.22v-.35h2.45v3.46h-7.13l-5.06-1.41h11v.35c0,.13.08.22.17.22s.17-.09.17-.22v-1.09a.18.18,0,1,0-.34,0v.35H263.31v-.35c0-.12-.07-.22-.16-.22a.2.2,0,0,0-.17.22v1.09c0,.13.08.22.17.22s.16-.09.16-.22v0l3.89,1.08h-2.66v-.35a.2.2,0,0,0-.17-.22c-.09,0-.16.1-.16.22v1.09c0,.12.07.22.16.22a.2.2,0,0,0,.17-.22v-.35h4l4.5,1.25L269,178.87h-4.41v-.36a.2.2,0,0,0-.17-.22c-.09,0-.16.1-.16.22v1.1c0,.12.07.22.16.22a.2.2,0,0,0,.17-.22v-.36h3.2l-4.43,1.42v-.23c0-.12-.07-.22-.16-.22a.2.2,0,0,0-.17.22v1.09a.2.2,0,0,0,.17.22c.09,0,.16-.1.16-.22v-.35H274.5v.35a.18.18,0,1,0,.34,0v-1.09a.18.18,0,1,0-.34,0v.35H264.1l4.8-1.54h6.77v3.47h-2.45v-.36c0-.12-.07-.22-.16-.22s-.17.1-.17.22v1.1c0,.12.07.22.17.22s.16-.1.16-.22v-.36h2.84v-3.49h0v-1.1c0-.12-.07-.22-.16-.22s-.17.1-.17.22v.36H270.1l4.25-1.37-.64-.16h0l-3.78-1.05h5.81v.35c0,.12.07.22.17.22s.16-.1.16-.22v-1.09h0v-3.5h-2.84v-.35c0-.12-.07-.22-.16-.22S272.89,171.58,272.89,171.7Z" transform="translate(-2.03 -3.02)"/><path class="cls-2" d="M253.07,183.46v-1.09c0-.13-.07-.23-.16-.23s-.17.1-.17.23v.35h-2.45v-3.47h7.14l5.06,1.41h-11v-.35a.2.2,0,0,0-.17-.22c-.09,0-.16.1-.16.22v1.09c0,.12.07.22.16.22a.2.2,0,0,0,.17-.22v-.35h11.19v.35c0,.12.07.22.17.22s.16-.1.16-.22v-1.09c0-.12-.07-.22-.16-.22s-.17.1-.17.22v0l-3.89-1.09h2.66v.35c0,.13.08.23.17.23s.17-.1.17-.23v-1.09a.18.18,0,1,0-.34,0v.36h-4l-4.49-1.26,4.12-1.32h4.41v.35a.18.18,0,1,0,.34,0v-1.09a.18.18,0,1,0-.34,0v.35h-3.2l4.43-1.42v.24c0,.12.07.21.17.21s.16-.09.16-.21v-1.1c0-.12-.07-.22-.16-.22s-.17.1-.17.22V174H251.46v-.36a.2.2,0,0,0-.17-.22c-.09,0-.16.1-.16.22v1.1c0,.12.07.21.16.21a.19.19,0,0,0,.17-.21v-.36h10.4l-4.79,1.54h-6.78v-3.46h2.45v.35c0,.12.07.22.17.22s.16-.1.16-.22V171.7c0-.12-.07-.22-.16-.22s-.17.1-.17.22v.35H249.9v3.5h0v1.09a.2.2,0,0,0,.17.22c.09,0,.16-.1.16-.22v-.35h5.63l-4.25,1.36.65.16h0l3.78,1.06h-5.81v-.36c0-.12-.07-.22-.16-.22a.2.2,0,0,0-.17.22v1.09h0v3.49h2.84v.36c0,.12.07.22.17.22S253.07,183.58,253.07,183.46Z" transform="translate(-2.03 -3.02)"/><path class="cls-2" d="M245.25,171.7v1.09a.2.2,0,0,0,.17.22c.09,0,.16-.1.16-.22v-.35H248v3.46H240.9l-5.06-1.41h11v.35c0,.13.08.22.17.22s.17-.09.17-.22v-1.09a.18.18,0,1,0-.34,0v.35H235.68v-.35a.18.18,0,1,0-.34,0v1.09c0,.13.08.22.17.22s.17-.09.17-.22v0l3.88,1.08H236.9v-.35c0-.12-.07-.22-.17-.22s-.16.1-.16.22v1.09c0,.12.07.22.16.22s.17-.1.17-.22v-.35h4l4.5,1.25-4.13,1.33H236.9v-.36c0-.12-.07-.22-.17-.22s-.16.1-.16.22v1.1c0,.12.07.22.16.22s.17-.1.17-.22v-.36h3.2l-4.42,1.42v-.23a.18.18,0,1,0-.34,0v1.09a.18.18,0,1,0,.34,0v-.35h11.18v.35a.18.18,0,1,0,.34,0v-1.09a.18.18,0,1,0-.34,0v.35h-10.4l4.8-1.54H248v3.47h-2.45v-.36c0-.12-.07-.22-.16-.22a.2.2,0,0,0-.17.22v1.1a.2.2,0,0,0,.17.22c.09,0,.16-.1.16-.22v-.36h2.84v-3.49h0v-1.1c0-.12-.07-.22-.16-.22s-.17.1-.17.22v.36h-5.63l4.25-1.37-.64-.16h0l-3.78-1.05h5.81v.35c0,.12.07.22.17.22s.16-.1.16-.22v-1.09h0v-3.5h-2.84v-.35c0-.12-.07-.22-.16-.22A.2.2,0,0,0,245.25,171.7Z" transform="translate(-2.03 -3.02)"/><path class="cls-2" d="M225.43,183.46v-1.09c0-.13-.07-.23-.16-.23s-.17.1-.17.23v.35h-2.45v-3.47h7.14l5.06,1.41h-11v-.35c0-.12-.07-.22-.17-.22s-.16.1-.16.22v1.09c0,.12.07.22.16.22s.17-.1.17-.22v-.35H235v.35c0,.12.07.22.17.22s.16-.1.16-.22v-1.09c0-.12-.07-.22-.16-.22s-.17.1-.17.22v0l-3.89-1.09h2.66v.35c0,.13.08.23.17.23s.17-.1.17-.23v-1.09a.18.18,0,1,0-.34,0v.36h-4l-4.49-1.26,4.13-1.32h4.4v.35a.18.18,0,1,0,.34,0v-1.09a.18.18,0,1,0-.34,0v.35h-3.2l4.43-1.42v.24c0,.12.07.21.17.21s.16-.09.16-.21v-1.1c0-.12-.07-.22-.16-.22s-.17.1-.17.22V174H223.82v-.36c0-.12-.07-.22-.17-.22s-.16.1-.16.22v1.1c0,.12.07.21.16.21s.17-.09.17-.21v-.36h10.41l-4.8,1.54h-6.78v-3.46h2.45v.35a.2.2,0,0,0,.17.22c.09,0,.16-.1.16-.22V171.7c0-.12-.07-.22-.16-.22a.2.2,0,0,0-.17.22v.35h-2.84v3.5h0v1.09a.18.18,0,1,0,.34,0v-.35h5.63L224,177.65l.65.16h0l3.78,1.06h-5.8v-.36a.18.18,0,1,0-.34,0v1.09h0v3.49h2.84v.36a.2.2,0,0,0,.17.22C225.36,183.68,225.43,183.58,225.43,183.46Z" transform="translate(-2.03 -3.02)"/><path class="cls-2" d="M217.61,171.7v1.09a.2.2,0,0,0,.17.22c.09,0,.16-.1.16-.22v-.35h2.45v3.46h-7.13l-5.06-1.41h11v.35c0,.13.08.22.17.22s.17-.09.17-.22v-1.09a.18.18,0,1,0-.34,0v.35H208v-.35a.18.18,0,1,0-.34,0v1.09c0,.13.08.22.17.22s.17-.09.17-.22v0l3.88,1.08h-2.66v-.35c0-.12-.07-.22-.17-.22s-.16.1-.16.22v1.09c0,.12.07.22.16.22s.17-.1.17-.22v-.35h4l4.5,1.25-4.13,1.33h-4.41v-.36c0-.12-.07-.22-.17-.22s-.16.1-.16.22v1.1c0,.12.07.22.16.22s.17-.1.17-.22v-.36h3.2L208,180.67v-.23a.18.18,0,1,0-.34,0v1.09a.18.18,0,1,0,.34,0v-.35h11.18v.35a.18.18,0,1,0,.34,0v-1.09a.18.18,0,1,0-.34,0v.35h-10.4l4.8-1.54h6.77v3.47h-2.45v-.36c0-.12-.07-.22-.16-.22a.2.2,0,0,0-.17.22v1.1a.2.2,0,0,0,.17.22c.09,0,.16-.1.16-.22v-.36h2.84v-3.49h0v-1.1c0-.12-.07-.22-.16-.22s-.17.1-.17.22v.36h-5.63l4.25-1.37-.64-.16h0l-3.79-1.05h5.81v.35c0,.12.07.22.17.22s.16-.1.16-.22v-1.09h0v-3.5h-2.84v-.35c0-.12-.07-.22-.16-.22A.2.2,0,0,0,217.61,171.7Z" transform="translate(-2.03 -3.02)"/><path class="cls-2" d="M197.79,183.46v-1.09c0-.13-.07-.23-.16-.23s-.17.1-.17.23v.35H195v-3.47h7.14l5.06,1.41h-11v-.35c0-.12-.07-.22-.17-.22s-.16.1-.16.22v1.09c0,.12.07.22.16.22s.17-.1.17-.22v-.35h11.19v.35c0,.12.07.22.17.22s.16-.1.16-.22v-1.09c0-.12-.07-.22-.16-.22s-.17.1-.17.22v0l-3.88-1.09h2.65v.35c0,.13.08.23.17.23s.17-.1.17-.23v-1.09a.18.18,0,1,0-.34,0v.36h-4l-4.49-1.26,4.13-1.32h4.4v.35a.18.18,0,1,0,.34,0v-1.09a.18.18,0,1,0-.34,0v.35h-3.2l4.43-1.42v.24c0,.12.07.21.17.21s.16-.09.16-.21v-1.1c0-.12-.07-.22-.16-.22s-.17.1-.17.22V174H196.18v-.36c0-.12-.07-.22-.17-.22s-.16.1-.16.22v1.1c0,.12.07.21.16.21s.17-.09.17-.21v-.36h10.41l-4.8,1.54H195v-3.46h2.45v.35a.2.2,0,0,0,.17.22c.09,0,.16-.1.16-.22V171.7c0-.12-.07-.22-.16-.22a.2.2,0,0,0-.17.22v.35h-2.84v3.5h0v1.09a.18.18,0,1,0,.34,0v-.35h5.63l-4.26,1.36.65.16h0l3.78,1.06H195v-.36a.18.18,0,1,0-.34,0v1.09h0v3.49h2.84v.36a.2.2,0,0,0,.17.22C197.72,183.68,197.79,183.58,197.79,183.46Z" transform="translate(-2.03 -3.02)"/><path class="cls-2" d="M190,171.7v1.09a.2.2,0,0,0,.17.22c.09,0,.16-.1.16-.22v-.35h2.45v3.46h-7.13l-5.06-1.41h11v.35c0,.13.07.22.16.22s.17-.09.17-.22v-1.09a.2.2,0,0,0-.17-.22c-.09,0-.16.1-.16.22v.35H180.4v-.35a.18.18,0,1,0-.34,0v1.09c0,.13.08.22.17.22s.17-.09.17-.22v0l3.88,1.08h-2.66v-.35c0-.12-.07-.22-.17-.22s-.16.1-.16.22v1.09c0,.12.07.22.16.22s.17-.1.17-.22v-.35h4l4.5,1.25L186,178.87h-4.41v-.36c0-.12-.07-.22-.17-.22s-.16.1-.16.22v1.1c0,.12.07.22.16.22s.17-.1.17-.22v-.36h3.2l-4.42,1.42v-.23a.18.18,0,1,0-.34,0v1.09a.18.18,0,1,0,.34,0v-.35h11.19v.35c0,.12.07.22.16.22a.2.2,0,0,0,.17-.22v-1.09a.2.2,0,0,0-.17-.22c-.09,0-.16.1-.16.22v.35H181.18l4.8-1.54h6.77v3.47H190.3v-.36c0-.12-.07-.22-.16-.22a.2.2,0,0,0-.17.22v1.1a.2.2,0,0,0,.17.22c.09,0,.16-.1.16-.22v-.36h2.84v-3.49h0v-1.1c0-.12-.07-.22-.16-.22s-.17.1-.17.22v.36h-5.63l4.25-1.37-.64-.16h0L187,176.29h5.81v.35c0,.12.07.22.17.22s.16-.1.16-.22v-1.09h0v-3.5H190.3v-.35c0-.12-.07-.22-.16-.22A.2.2,0,0,0,190,171.7Z" transform="translate(-2.03 -3.02)"/><path class="cls-2" d="M170.15,183.46v-1.09c0-.13-.07-.23-.16-.23s-.17.1-.17.23v.35h-2.45v-3.47h7.14l5.06,1.41h-11v-.35c0-.12-.07-.22-.17-.22s-.16.1-.16.22v1.09c0,.12.07.22.16.22s.17-.1.17-.22v-.35h11.19v.35c0,.12.07.22.17.22s.16-.1.16-.22v-1.09c0-.12-.07-.22-.16-.22s-.17.1-.17.22v0l-3.88-1.09h2.66v.35c0,.13.07.23.16.23s.17-.1.17-.23v-1.09a.2.2,0,0,0-.17-.22c-.09,0-.16.1-.16.22v.36h-4l-4.5-1.26,4.13-1.32h4.41v.35c0,.12.07.22.16.22a.2.2,0,0,0,.17-.22v-1.09a.2.2,0,0,0-.17-.22c-.09,0-.16.1-.16.22v.35H175.3l4.43-1.42v.24c0,.12.07.21.17.21s.16-.09.16-.21v-1.1c0-.12-.07-.22-.16-.22s-.17.1-.17.22V174H168.54v-.36c0-.12-.07-.22-.17-.22s-.16.1-.16.22v1.1c0,.12.07.21.16.21s.17-.09.17-.21v-.36H179l-4.8,1.54h-6.78v-3.46h2.45v.35a.2.2,0,0,0,.17.22c.09,0,.16-.1.16-.22V171.7c0-.12-.07-.22-.16-.22a.2.2,0,0,0-.17.22v.35H167v3.5h0v1.09a.18.18,0,1,0,.34,0v-.35H173l-4.25,1.36.64.16h0l3.78,1.06h-5.8v-.36a.18.18,0,1,0-.34,0v1.09h0v3.49h2.84v.36a.2.2,0,0,0,.17.22C170.08,183.68,170.15,183.58,170.15,183.46Z" transform="translate(-2.03 -3.02)"/><path class="cls-2" d="M162.33,171.7v1.09a.2.2,0,0,0,.17.22c.09,0,.16-.1.16-.22v-.35h2.45v3.46H158l-5.06-1.41h11v.35c0,.13.07.22.16.22s.17-.09.17-.22v-1.09a.2.2,0,0,0-.17-.22c-.09,0-.16.1-.16.22v.35H152.76v-.35a.18.18,0,1,0-.34,0v1.09c0,.13.08.22.17.22s.17-.09.17-.22v0l3.88,1.08H154v-.35c0-.12-.07-.22-.17-.22s-.16.1-.16.22v1.09c0,.12.07.22.16.22s.17-.1.17-.22v-.35h4l4.5,1.25-4.13,1.33H154v-.36c0-.12-.07-.22-.17-.22s-.16.1-.16.22v1.1c0,.12.07.22.16.22s.17-.1.17-.22v-.36h3.21l-4.43,1.42v-.23a.18.18,0,1,0-.34,0v1.09a.18.18,0,1,0,.34,0v-.35H164v.35c0,.12.07.22.16.22a.2.2,0,0,0,.17-.22v-1.09a.2.2,0,0,0-.17-.22c-.09,0-.16.1-.16.22v.35H153.54l4.8-1.54h6.77v3.47h-2.45v-.36c0-.12-.07-.22-.16-.22a.2.2,0,0,0-.17.22v1.1a.2.2,0,0,0,.17.22c.09,0,.16-.1.16-.22v-.36h2.84v-3.49h0v-1.1c0-.12-.07-.22-.16-.22a.2.2,0,0,0-.17.22v.36h-5.63l4.25-1.37-.64-.16h0l-3.79-1.05h5.81v.35a.2.2,0,0,0,.17.22c.09,0,.16-.1.16-.22v-1.09h0v-3.5h-2.84v-.35c0-.12-.07-.22-.16-.22A.2.2,0,0,0,162.33,171.7Z" transform="translate(-2.03 -3.02)"/><path class="cls-2" d="M142.52,183.46v-1.09c0-.13-.08-.23-.17-.23s-.17.1-.17.23v.35h-2.45v-3.47h7.14l5.06,1.41h-11v-.35c0-.12-.07-.22-.17-.22s-.16.1-.16.22v1.09c0,.12.07.22.16.22s.17-.1.17-.22v-.35h11.19v.35a.2.2,0,0,0,.17.22c.09,0,.16-.1.16-.22v-1.09c0-.12-.07-.22-.16-.22a.2.2,0,0,0-.17.22v0l-3.88-1.09h2.66v.35c0,.13.07.23.16.23s.17-.1.17-.23v-1.09a.2.2,0,0,0-.17-.22c-.09,0-.16.1-.16.22v.36h-4l-4.5-1.26,4.13-1.32h4.41v.35c0,.12.07.22.16.22a.2.2,0,0,0,.17-.22v-1.09a.2.2,0,0,0-.17-.22c-.09,0-.16.1-.16.22v.35h-3.21l4.43-1.42v.24a.19.19,0,0,0,.17.21c.09,0,.16-.09.16-.21v-1.1c0-.12-.07-.22-.16-.22a.2.2,0,0,0-.17.22V174H140.9v-.36c0-.12-.07-.22-.17-.22s-.16.1-.16.22v1.1c0,.12.07.21.16.21s.17-.09.17-.21v-.36h10.41l-4.8,1.54h-6.78v-3.46h2.45v.35a.18.18,0,1,0,.34,0V171.7a.18.18,0,1,0-.34,0v.35h-2.84v3.5h0v1.09a.18.18,0,1,0,.34,0v-.35h5.63l-4.25,1.36.64.16h0l3.78,1.06h-5.8v-.36a.18.18,0,1,0-.34,0v1.09h0v3.49h2.84v.36a.18.18,0,1,0,.34,0Z" transform="translate(-2.03 -3.02)"/><path class="cls-2" d="M134.69,171.7v1.09a.18.18,0,1,0,.34,0v-.35h2.44v3.46h-7.13l-5.06-1.41h11v.35c0,.13.07.22.16.22s.17-.09.17-.22v-1.09a.2.2,0,0,0-.17-.22c-.09,0-.16.1-.16.22v.35H125.12v-.35a.18.18,0,1,0-.34,0v1.09c0,.13.08.22.17.22s.17-.09.17-.22v0L129,175.9h-2.66v-.35c0-.12-.07-.22-.17-.22s-.16.1-.16.22v1.09c0,.12.07.22.16.22s.17-.1.17-.22v-.35h4l4.5,1.25-4.13,1.33h-4.41v-.36c0-.12-.07-.22-.17-.22s-.16.1-.16.22v1.1c0,.12.07.22.16.22s.17-.1.17-.22v-.36h3.21l-4.43,1.42v-.23a.18.18,0,1,0-.34,0v1.09a.18.18,0,1,0,.34,0v-.35h11.19v.35c0,.12.07.22.16.22a.2.2,0,0,0,.17-.22v-1.09a.2.2,0,0,0-.17-.22c-.09,0-.16.1-.16.22v.35H125.9l4.8-1.54h6.77v3.47H135v-.36a.18.18,0,1,0-.34,0v1.1a.18.18,0,1,0,.34,0v-.36h2.83v-3.49h0v-1.1c0-.12-.07-.22-.16-.22a.2.2,0,0,0-.17.22v.36H131.9l4.25-1.37-.64-.16h0l-3.78-1.05h5.8v.35a.2.2,0,0,0,.17.22c.09,0,.16-.1.16-.22v-1.09h0v-3.5H135v-.35a.18.18,0,1,0-.34,0Z" transform="translate(-2.03 -3.02)"/><path class="cls-2" d="M114.88,183.46v-1.09c0-.13-.08-.23-.17-.23s-.17.1-.17.23v.35h-2.45v-3.47h7.14l5.06,1.41h-11v-.35c0-.12-.07-.22-.17-.22s-.16.1-.16.22v1.09c0,.12.07.22.16.22s.17-.1.17-.22v-.35h11.19v.35a.2.2,0,0,0,.17.22c.09,0,.16-.1.16-.22v-1.09c0-.12-.07-.22-.16-.22a.2.2,0,0,0-.17.22v0l-3.88-1.09h2.66v.35c0,.13.07.23.16.23s.17-.1.17-.23v-1.09a.2.2,0,0,0-.17-.22c-.09,0-.16.1-.16.22v.36h-4l-4.5-1.26,4.13-1.32h4.41v.35c0,.12.07.22.16.22a.2.2,0,0,0,.17-.22v-1.09a.2.2,0,0,0-.17-.22c-.09,0-.16.1-.16.22v.35H120l4.43-1.42v.24a.19.19,0,0,0,.17.21c.09,0,.16-.09.16-.21v-1.1c0-.12-.07-.22-.16-.22a.2.2,0,0,0-.17.22V174H113.26v-.36c0-.12-.07-.22-.17-.22s-.16.1-.16.22v1.1c0,.12.07.21.16.21s.17-.09.17-.21v-.36h10.41l-4.8,1.54h-6.78v-3.46h2.45v.35a.18.18,0,1,0,.34,0V171.7a.18.18,0,1,0-.34,0v.35H111.7v3.5h0v1.09a.18.18,0,1,0,.34,0v-.35h5.63l-4.25,1.36.64.16h0l3.78,1.06H112v-.36a.18.18,0,1,0-.34,0v1.09h0v3.49h2.84v.36a.18.18,0,1,0,.34,0Z" transform="translate(-2.03 -3.02)"/><path class="cls-2" d="M107.05,171.7v1.09a.18.18,0,1,0,.34,0v-.35h2.44v3.46H102.7l-5.06-1.41h11v.35c0,.13.07.22.16.22s.17-.09.17-.22v-1.09a.2.2,0,0,0-.17-.22c-.09,0-.16.1-.16.22v.35H97.48v-.35a.18.18,0,1,0-.34,0v1.09c0,.13.08.22.17.22s.17-.09.17-.22v0l3.88,1.08H98.7v-.35c0-.12-.07-.22-.16-.22s-.17.1-.17.22v1.09c0,.12.07.22.17.22s.16-.1.16-.22v-.35h4l4.5,1.25-4.13,1.33H98.7v-.36c0-.12-.07-.22-.16-.22s-.17.1-.17.22v1.1c0,.12.07.22.17.22s.16-.1.16-.22v-.36h3.21l-4.43,1.42v-.23a.18.18,0,1,0-.34,0v1.09a.18.18,0,1,0,.34,0v-.35h11.19v.35c0,.12.07.22.16.22a.2.2,0,0,0,.17-.22v-1.09a.2.2,0,0,0-.17-.22c-.09,0-.16.1-.16.22v.35H98.26l4.8-1.54h6.77v3.47h-2.44v-.36a.18.18,0,1,0-.34,0v1.1a.18.18,0,1,0,.34,0v-.36h2.84v-3.49h0v-1.1a.18.18,0,1,0-.34,0v.36h-5.63l4.25-1.37-.64-.16h0l-3.78-1.05h5.8v.35a.18.18,0,1,0,.34,0v-1.09h0v-3.5h-2.84v-.35a.18.18,0,1,0-.34,0Z" transform="translate(-2.03 -3.02)"/><path class="cls-2" d="M87.24,183.46v-1.09c0-.13-.08-.23-.17-.23s-.17.1-.17.23v.35H84.45v-3.47h7.14l5.06,1.41h-11v-.35c0-.12-.07-.22-.16-.22s-.17.1-.17.22v1.09c0,.12.07.22.17.22s.16-.1.16-.22v-.35H96.81v.35a.2.2,0,0,0,.17.22c.09,0,.16-.1.16-.22v-1.09c0-.12-.07-.22-.16-.22a.2.2,0,0,0-.17.22v0l-3.88-1.09h2.66v.35c0,.13.07.23.16.23s.17-.1.17-.23v-1.09a.2.2,0,0,0-.17-.22c-.09,0-.16.1-.16.22v.36h-4l-4.5-1.26,4.13-1.32h4.41v.35c0,.12.07.22.16.22a.2.2,0,0,0,.17-.22v-1.09a.2.2,0,0,0-.17-.22c-.09,0-.16.1-.16.22v.35H92.38l4.43-1.42v.24a.19.19,0,0,0,.17.21c.09,0,.16-.09.16-.21v-1.1c0-.12-.07-.22-.16-.22a.2.2,0,0,0-.17.22V174H85.62v-.36c0-.12-.07-.22-.16-.22s-.17.1-.17.22v1.1c0,.12.07.21.17.21s.16-.09.16-.21v-.36H96l-4.8,1.54H84.45v-3.46H86.9v.35a.18.18,0,1,0,.34,0V171.7a.18.18,0,1,0-.34,0v.35H84.06v3.5h0v1.09a.18.18,0,1,0,.34,0v-.35H90l-4.25,1.36.64.16h0l3.78,1.06H84.4v-.36a.18.18,0,1,0-.34,0v1.09h0v3.49H86.9v.36a.18.18,0,1,0,.34,0Z" transform="translate(-2.03 -3.02)"/><path class="cls-2" d="M79.41,171.7v1.09a.18.18,0,1,0,.34,0v-.35h2.44v3.46H75.06L70,174.49H81v.35c0,.13.07.22.16.22s.17-.09.17-.22v-1.09c0-.12-.07-.22-.17-.22s-.16.1-.16.22v.35H69.84v-.35a.2.2,0,0,0-.17-.22c-.09,0-.16.1-.16.22v1.09c0,.13.07.22.16.22s.17-.09.17-.22v0l3.88,1.08H71.06v-.35c0-.12-.07-.22-.16-.22a.2.2,0,0,0-.17.22v1.09a.2.2,0,0,0,.17.22c.09,0,.16-.1.16-.22v-.35h4l4.5,1.25-4.13,1.33H71.06v-.36c0-.12-.07-.22-.16-.22a.2.2,0,0,0-.17.22v1.1a.2.2,0,0,0,.17.22c.09,0,.16-.1.16-.22v-.36h3.21l-4.43,1.42v-.23a.2.2,0,0,0-.17-.22c-.09,0-.16.1-.16.22v1.09c0,.12.07.22.16.22a.2.2,0,0,0,.17-.22v-.35H81v.35c0,.12.07.22.16.22s.17-.1.17-.22v-1.09c0-.12-.07-.22-.17-.22s-.16.1-.16.22v.35H70.62l4.8-1.54h6.77v3.47H79.75v-.36a.18.18,0,1,0-.34,0v1.1a.18.18,0,1,0,.34,0v-.36h2.84v-3.49h0v-1.1a.18.18,0,1,0-.34,0v.36H76.62l4.25-1.37-.64-.16h0l-3.78-1.05h5.8v.35a.18.18,0,1,0,.34,0v-1.09h0v-3.5H79.75v-.35a.18.18,0,1,0-.34,0Z" transform="translate(-2.03 -3.02)"/><path class="cls-2" d="M59.6,183.46v-1.09c0-.13-.08-.23-.17-.23s-.17.1-.17.23v.35H56.82v-3.47H64L69,180.66H58v-.35c0-.12-.07-.22-.16-.22s-.17.1-.17.22v1.09c0,.12.07.22.17.22s.16-.1.16-.22v-.35H69.17v.35a.18.18,0,1,0,.34,0v-1.09a.18.18,0,1,0-.34,0v0l-3.88-1.09H68v.35c0,.13.07.23.16.23s.17-.1.17-.23v-1.09c0-.12-.07-.22-.17-.22s-.16.1-.16.22v.36h-4l-4.5-1.26,4.13-1.32H68v.35c0,.12.07.22.16.22s.17-.1.17-.22v-1.09c0-.12-.07-.22-.17-.22s-.16.1-.16.22v.35H64.74l4.43-1.42v.24a.17.17,0,1,0,.34,0v-1.1a.18.18,0,1,0-.34,0V174H58v-.36c0-.12-.07-.22-.16-.22s-.17.1-.17.22v1.1c0,.12.07.21.17.21s.16-.09.16-.21v-.36H68.39l-4.8,1.54H56.82v-3.46h2.44v.35a.18.18,0,1,0,.34,0V171.7a.18.18,0,1,0-.34,0v.35H56.43v3.5h0v1.09c0,.12.07.22.16.22a.2.2,0,0,0,.17-.22v-.35h5.63l-4.25,1.36.64.16h0l3.78,1.06h-5.8v-.36a.2.2,0,0,0-.17-.22c-.09,0-.16.1-.16.22v1.09h0v3.49h2.83v.36a.18.18,0,1,0,.34,0Z" transform="translate(-2.03 -3.02)"/><path class="cls-2" d="M51.77,171.7v1.09a.18.18,0,1,0,.34,0v-.35h2.45v3.46H47.42l-5.06-1.41h11v.35c0,.13.07.22.17.22s.16-.09.16-.22v-1.09c0-.12-.07-.22-.16-.22s-.17.1-.17.22v.35H42.2v-.35a.2.2,0,0,0-.17-.22c-.09,0-.16.1-.16.22v1.09c0,.13.07.22.16.22s.17-.09.17-.22v0l3.88,1.08H43.42v-.35c0-.12-.07-.22-.16-.22a.2.2,0,0,0-.17.22v1.09a.2.2,0,0,0,.17.22c.09,0,.16-.1.16-.22v-.35h4l4.5,1.25-4.13,1.33H43.42v-.36c0-.12-.07-.22-.16-.22a.2.2,0,0,0-.17.22v1.1a.2.2,0,0,0,.17.22c.09,0,.16-.1.16-.22v-.36h3.21l-4.43,1.42v-.23a.2.2,0,0,0-.17-.22c-.09,0-.16.1-.16.22v1.09c0,.12.07.22.16.22a.2.2,0,0,0,.17-.22v-.35H53.39v.35c0,.12.07.22.17.22s.16-.1.16-.22v-1.09c0-.12-.07-.22-.16-.22s-.17.1-.17.22v.35H43l4.8-1.54h6.78v3.47H52.11v-.36a.18.18,0,1,0-.34,0v1.1a.18.18,0,1,0,.34,0v-.36H55v-3.49h0v-1.1a.18.18,0,1,0-.34,0v.36H49l4.25-1.37-.64-.16h0l-3.78-1.05h5.8v.35a.18.18,0,1,0,.34,0v-1.09h0v-3.5H52.11v-.35a.18.18,0,1,0-.34,0Z" transform="translate(-2.03 -3.02)"/><path class="cls-2" d="M32,183.46v-1.09c0-.13-.08-.23-.17-.23s-.17.1-.17.23v.35H29.18v-3.47h7.13l5.06,1.41h-11v-.35c0-.12-.07-.22-.16-.22a.2.2,0,0,0-.17.22v1.09a.2.2,0,0,0,.17.22c.09,0,.16-.1.16-.22v-.35H41.53v.35a.18.18,0,1,0,.34,0v-1.09a.18.18,0,1,0-.34,0v0l-3.88-1.09h2.66v.35c0,.13.07.23.17.23s.16-.1.16-.23v-1.09c0-.12-.07-.22-.16-.22s-.17.1-.17.22v.36h-4l-4.5-1.26,4.13-1.32h4.41v.35c0,.12.07.22.17.22s.16-.1.16-.22v-1.09c0-.12-.07-.22-.16-.22s-.17.1-.17.22v.35H37.1l4.43-1.42v.24a.17.17,0,1,0,.34,0v-1.1a.18.18,0,1,0-.34,0V174H30.34v-.36c0-.12-.07-.22-.16-.22a.2.2,0,0,0-.17.22v1.1a.19.19,0,0,0,.17.21c.09,0,.16-.09.16-.21v-.36H40.75L36,175.9H29.18v-3.46h2.44v.35a.18.18,0,1,0,.34,0V171.7a.18.18,0,1,0-.34,0v.35H28.79v3.5h0v1.09c0,.12.07.22.16.22a.2.2,0,0,0,.17-.22v-.35h5.63l-4.25,1.36.64.16h0l3.78,1.06h-5.8v-.36a.2.2,0,0,0-.17-.22c-.09,0-.16.1-.16.22v1.09h0v3.49h2.83v.36a.18.18,0,1,0,.34,0Z" transform="translate(-2.03 -3.02)"/><path class="cls-2" d="M24.13,171.7v1.09a.18.18,0,1,0,.34,0v-.35h2.45v3.46H19.78l-5.06-1.41h11v.35c0,.13.07.22.17.22s.16-.09.16-.22v-1.09c0-.12-.07-.22-.16-.22s-.17.1-.17.22v.35H14.56v-.35a.2.2,0,0,0-.17-.22c-.09,0-.16.1-.16.22v1.09c0,.13.07.22.16.22s.17-.09.17-.22v0l3.88,1.08H15.78v-.35c0-.12-.07-.22-.16-.22a.2.2,0,0,0-.17.22v1.09a.2.2,0,0,0,.17.22c.09,0,.16-.1.16-.22v-.35h4l4.5,1.25-4.13,1.33H15.78v-.36c0-.12-.07-.22-.16-.22a.2.2,0,0,0-.17.22v1.1a.2.2,0,0,0,.17.22c.09,0,.16-.1.16-.22v-.36H19l-4.43,1.42v-.23a.2.2,0,0,0-.17-.22c-.09,0-.16.1-.16.22v1.09c0,.12.07.22.16.22a.2.2,0,0,0,.17-.22v-.35H25.75v.35c0,.12.07.22.17.22s.16-.1.16-.22v-1.09c0-.12-.07-.22-.16-.22s-.17.1-.17.22v.35H15.34l4.8-1.54h6.78v3.47H24.47v-.36a.18.18,0,1,0-.34,0v1.1a.18.18,0,1,0,.34,0v-.36h2.84v-3.49h0v-1.1a.18.18,0,1,0-.34,0v.36H21.34l4.25-1.37-.64-.16h0l-3.78-1.05H27v.35a.18.18,0,1,0,.34,0v-1.09h0v-3.5H24.47v-.35a.18.18,0,1,0-.34,0Z" transform="translate(-2.03 -3.02)"/><rect class="cls-3" x="38.5" y="37.17" width="279.08" height="106.32"/></svg>